<svg width="304" height="304" viewBox="0 0 304 304" fill="none" xmlns="http://www.w3.org/2000/svg">
<path opacity="0.5" d="M172.773 254.238L74.1099 257.759C67.5648 257.993 62.0928 252.937 61.886 246.465L61.5547 235.968L81.3542 239.218L82.023 242.741C83.2329 249.122 89.3889 253.311 95.7729 252.098L125.437 246.459L172.776 254.235L172.773 254.238ZM228.803 242.759C227.91 248.195 223.234 252.432 217.467 252.639L188.885 253.658C191.496 251.919 193.403 249.137 193.953 245.79L196.047 233.037L222.27 228.055L228.697 235.989L228.588 236.077C226.858 237.482 226.59 240.023 227.992 241.759L228.803 242.762V242.759Z" fill="#AAAAAA"/>
<path d="M73.6723 258.677C70.4103 258.677 67.3308 257.467 64.9505 255.244C62.4942 252.949 61.0836 249.839 60.9772 246.492L60.6094 234.886L82.1326 238.418L82.9199 242.568C83.4611 245.413 85.0753 247.879 87.4739 249.511C89.8694 251.14 92.7574 251.739 95.6059 251.198L125.428 245.529L125.586 245.556L172.925 253.332L172.81 255.144L74.1465 258.664C73.9884 258.671 73.8303 258.674 73.6723 258.674V258.677ZM62.5033 237.044L62.8012 246.432C62.8924 249.292 64.0963 251.946 66.1969 253.91C68.334 255.907 71.1308 256.947 74.0796 256.844L163.592 253.648L125.453 247.383L95.9494 252.992C92.6236 253.624 89.2492 252.925 86.4494 251.019C83.6495 249.116 81.7617 246.234 81.1324 242.908L80.5822 240.011L62.5063 237.044H62.5033ZM185.705 254.685L188.387 252.901C190.87 251.247 192.576 248.602 193.059 245.644L195.257 232.262L222.641 227.058L229.992 236.135L229.156 236.795C227.828 237.871 227.621 239.847 228.706 241.188L229.776 242.507L229.709 242.911C228.734 248.86 223.599 253.335 217.507 253.554L185.705 254.688V254.685ZM196.85 233.816L194.859 245.939C194.442 248.477 193.257 250.821 191.503 252.651L217.443 251.727C222.535 251.545 226.846 247.903 227.84 243.008L227.293 242.331C225.739 240.412 225.858 237.676 227.46 235.898L221.912 229.052L196.85 233.816Z" fill="#AAAAAA"/>
<path opacity="0.5" d="M224.666 105.345L220.565 83.77L216.379 61.7604L215.337 56.2763C219.921 57.7598 223.289 61.9459 223.45 67.0014L224.669 105.348L224.666 105.345ZM122.924 45.6788L58.8525 57.8571C58.1077 58 57.3902 58.2067 56.7062 58.4833L58.585 47.0316C59.6368 40.6172 65.6894 36.2792 72.0978 37.331L122.924 45.6788ZM81.3515 239.217L61.552 235.968L40.0531 232.435C33.6387 231.383 29.3006 225.331 30.3525 218.922L52.201 85.8828L57.7064 114.86L81.3485 239.22L81.3515 239.217ZM196.048 233.037L193.953 245.79C193.406 249.137 191.497 251.919 188.885 253.657C186.49 255.263 183.508 255.995 180.44 255.494L172.773 254.235L125.435 246.459L196.048 233.037Z" fill="#AAAAAA"/>
<path d="M223.773 105.518L214.154 54.9351L215.619 55.4094C220.681 57.0479 224.195 61.6961 224.363 66.9705L225.579 105.317L223.77 105.518H223.773ZM216.547 57.7502L223.387 93.7225L222.538 67.0283C222.411 63.055 220.064 59.5012 216.547 57.7502ZM55.5452 59.9329L57.6854 46.8852C58.2356 43.5443 60.0505 40.6167 62.8017 38.6407C65.5529 36.6678 68.906 35.8835 72.247 36.4307L128.153 45.6115L59.023 58.7534C58.3359 58.8841 57.6702 59.0787 57.047 59.3279L55.5452 59.9299V59.9329ZM70.1707 38.0875C67.9211 38.0875 65.7323 38.7867 63.8687 40.1243C61.5127 41.8145 59.9593 44.3195 59.4881 47.1801L57.8526 57.1513C58.1262 57.0814 58.4028 57.0175 58.6855 56.9628L117.701 45.7452L71.9551 38.2334C71.3593 38.1361 70.7635 38.0875 70.1737 38.0875H70.1707ZM82.4948 240.326L39.9105 233.331C36.5695 232.784 33.642 230.966 31.6691 228.215C29.6961 225.464 28.9118 222.111 29.459 218.77L52.1435 80.6475L82.4948 240.323V240.326ZM52.2742 91.1081L31.2587 219.068C30.7875 221.928 31.4593 224.798 33.1495 227.154C34.8398 229.51 37.3447 231.064 40.2054 231.535L80.2148 238.107L56.8159 115.027L52.2711 91.1111L52.2742 91.1081ZM182.356 256.563C181.672 256.563 180.982 256.508 180.295 256.396L120.209 246.525L197.161 231.897L194.853 245.938C194.288 249.392 192.297 252.48 189.393 254.417C187.293 255.824 184.849 256.56 182.353 256.56L182.356 256.563ZM130.667 246.394L180.593 254.593C183.322 255.037 186.089 254.438 188.384 252.9C190.871 251.24 192.576 248.595 193.06 245.64L194.944 234.174L130.67 246.391L130.667 246.394Z" fill="#AAAAAA"/>
<path opacity="0.25" d="M224.666 105.347L220.565 83.7695L216.376 61.7568L215.336 56.2727L212.366 40.6501C211.153 34.2661 205 30.074 198.616 31.29L122.923 45.6783L58.8523 57.8565C58.1075 57.9994 57.387 58.2061 56.706 58.4828C51.5593 60.5135 48.422 65.9763 49.4891 71.6095L52.2038 85.8762L57.7092 114.853L81.3513 239.214L82.0201 242.74C83.23 249.121 89.3891 253.31 95.7731 252.094L125.434 246.455L196.047 233.033L222.271 228.051L218.401 223.275C213.227 226.081 207.709 227.905 202.088 228.765C184.973 231.386 166.961 225.108 155.275 210.683C137.765 189.069 141.09 157.35 162.708 139.836C167.803 135.708 173.46 132.738 179.361 130.893C195.108 125.965 212.591 129.053 225.748 139.52C228.104 141.393 230.323 143.502 232.366 145.849L224.666 105.344V105.347ZM201.41 77.6104C201.41 77.6104 201.434 77.6135 201.443 77.6165C201.668 77.653 201.878 77.7412 202.058 77.8658C202.094 77.8901 202.131 77.9144 202.164 77.9448C202.191 77.9661 202.219 77.9874 202.24 78.0117C202.267 78.036 202.289 78.0573 202.313 78.0847C202.389 78.1637 202.459 78.2549 202.517 78.3522C202.532 78.3795 202.55 78.41 202.562 78.4343C202.587 78.4768 202.605 78.5224 202.626 78.568C202.635 78.5984 202.65 78.6319 202.659 78.6653C202.669 78.6805 202.672 78.6988 202.675 78.717C202.681 78.7322 202.684 78.7504 202.687 78.7717C202.696 78.8051 202.702 78.8386 202.711 78.8751C202.72 78.9237 202.729 78.9754 202.735 79.024C202.76 79.2612 202.726 79.4952 202.647 79.708C202.635 79.7506 202.614 79.7962 202.593 79.8357C202.583 79.8661 202.568 79.8965 202.55 79.9239C202.55 79.93 202.547 79.933 202.541 79.9391C202.523 79.9755 202.504 80.009 202.48 80.0394C202.447 80.0972 202.407 80.1488 202.359 80.2005C202.337 80.2279 202.313 80.2583 202.289 80.2795C202.234 80.3373 202.179 80.3859 202.115 80.4346C202.094 80.4498 202.073 80.468 202.048 80.4802C202.024 80.5015 202 80.5167 201.972 80.5288C201.936 80.5562 201.893 80.5744 201.851 80.5957C201.726 80.6565 201.592 80.7021 201.45 80.7295L139.087 92.5855C138.795 92.6402 138.509 92.6128 138.251 92.5155C138.208 92.5034 138.163 92.4851 138.123 92.4608C138.096 92.4517 138.075 92.4365 138.047 92.4213C138.008 92.4 137.968 92.3788 137.926 92.3514C137.886 92.3271 137.85 92.2997 137.813 92.2724C137.792 92.2602 137.777 92.245 137.759 92.2298C137.679 92.1629 137.61 92.0899 137.543 92.0048C137.521 91.9775 137.5 91.944 137.479 91.9136C137.455 91.8802 137.436 91.8467 137.415 91.8133C137.375 91.7434 137.339 91.6704 137.309 91.5914C137.272 91.5032 137.245 91.4151 137.23 91.3178C137.175 91.026 137.202 90.7432 137.299 90.4818C137.312 90.4392 137.33 90.3997 137.354 90.3572C137.382 90.2933 137.415 90.2295 137.455 90.1748C137.476 90.1444 137.497 90.1109 137.521 90.0805C137.521 90.0744 137.524 90.0714 137.531 90.0653C137.54 90.0501 137.555 90.0319 137.567 90.0197C137.579 89.9984 137.6 89.9771 137.622 89.9559C137.631 89.9437 137.643 89.9316 137.655 89.9194L137.689 89.8859C137.71 89.8647 137.731 89.8464 137.755 89.8252C137.822 89.7644 137.895 89.7127 137.971 89.6671C137.971 89.6671 137.971 89.664 137.974 89.664C138.132 89.5698 138.306 89.5029 138.494 89.4664L200.857 77.6104C201.003 77.58 201.155 77.5739 201.295 77.5891C201.328 77.5922 201.364 77.5952 201.401 77.6013L201.41 77.6104ZM200.167 69.6122C200.282 69.6517 200.395 69.7095 200.495 69.7794C200.516 69.7885 200.531 69.8037 200.553 69.8159C200.574 69.828 200.589 69.8432 200.607 69.8554C200.65 69.8888 200.696 69.9253 200.735 69.9648C200.744 69.9739 200.759 69.9892 200.769 69.9983C200.811 70.0408 200.851 70.0895 200.89 70.1381C200.893 70.1412 200.896 70.1412 200.896 70.1442C200.93 70.1868 200.96 70.2354 200.991 70.281C201.063 70.4056 201.121 70.5364 201.161 70.6792C201.173 70.7188 201.185 70.7613 201.191 70.8069C201.219 70.9528 201.225 71.1018 201.212 71.2447C201.212 71.2751 201.206 71.3055 201.203 71.3359C201.203 71.3389 201.203 71.342 201.2 71.345C201.194 71.3845 201.188 71.424 201.176 71.4666C201.167 71.5061 201.155 71.5456 201.143 71.5821C201.139 71.5943 201.136 71.6125 201.13 71.6247C201.124 71.6399 201.118 71.6581 201.115 71.6703C201.106 71.7067 201.088 71.7402 201.073 71.7736C201.06 71.804 201.045 71.8314 201.03 71.8557C201.009 71.8922 200.987 71.9287 200.963 71.9651C200.936 72.0077 200.905 72.0472 200.875 72.0898C200.805 72.181 200.72 72.2631 200.629 72.333C200.601 72.3573 200.574 72.3756 200.547 72.3999C200.37 72.5245 200.164 72.6127 199.936 72.6583L189.977 74.5491L137.573 84.5082C137.521 84.5173 137.473 84.5264 137.424 84.5325C136.619 84.6085 135.874 84.0583 135.719 83.2496C135.697 83.1493 135.688 83.0459 135.691 82.9487C135.691 82.9031 135.691 82.8575 135.697 82.8119C135.703 82.7298 135.719 82.6447 135.74 82.5656C135.749 82.5231 135.764 82.4775 135.776 82.438C135.804 82.3559 135.837 82.2738 135.883 82.1978C135.904 82.1583 135.925 82.1218 135.95 82.0853C135.977 82.0427 136.007 82.0032 136.038 81.9607C136.068 81.9242 136.099 81.8877 136.135 81.8543C136.169 81.8178 136.202 81.7843 136.239 81.7539C136.305 81.6901 136.378 81.6415 136.454 81.5928C136.612 81.4955 136.786 81.4287 136.977 81.3922L199.34 69.5362C199.632 69.4815 199.917 69.5088 200.179 69.6061L200.167 69.6122ZM133.256 69.3751C133.317 69.0468 133.43 68.7336 133.591 68.4479C133.597 68.4357 133.6 68.4236 133.612 68.4144C133.645 68.3506 133.685 68.2898 133.724 68.2351C133.782 68.1469 133.846 68.0679 133.913 67.9919C133.943 67.9554 133.977 67.9189 134.01 67.8855C134.016 67.8794 134.022 67.8703 134.035 67.8611C134.092 67.8004 134.153 67.7456 134.214 67.6909C134.214 67.6909 134.215 67.6899 134.217 67.6879C134.217 67.6879 134.223 67.6788 134.229 67.6788C134.229 67.6788 134.231 67.6777 134.235 67.6757C134.275 67.6362 134.323 67.5997 134.369 67.5663C134.39 67.5511 134.405 67.5359 134.427 67.5268C134.43 67.5207 134.439 67.5146 134.442 67.5146C134.448 67.5085 134.451 67.5055 134.457 67.5055C134.497 67.472 134.545 67.4447 134.591 67.4143C134.597 67.4082 134.606 67.4052 134.618 67.396C134.688 67.3535 134.758 67.317 134.831 67.2805C134.895 67.2501 134.959 67.2197 135.026 67.1984C135.059 67.1863 135.089 67.1711 135.123 67.1619H135.126C135.126 67.1619 135.138 67.1559 135.147 67.1528C135.205 67.1315 135.257 67.1133 135.314 67.0981C135.32 67.0951 135.327 67.0951 135.339 67.092C135.415 67.0708 135.494 67.0525 135.57 67.0373L191.436 56.4156H191.442L195.363 55.6708C195.455 55.6556 195.546 55.6404 195.637 55.6343C195.728 55.6221 195.816 55.6221 195.905 55.6221C195.978 55.6221 196.047 55.6221 196.117 55.6312C196.142 55.6312 196.157 55.6312 196.178 55.6343H196.19C196.251 55.6404 196.312 55.6464 196.37 55.6586C196.379 55.6616 196.394 55.6647 196.403 55.6647C196.479 55.6768 196.552 55.6951 196.628 55.7133C196.649 55.7164 196.665 55.7194 196.683 55.7255C196.744 55.7407 196.798 55.7589 196.859 55.7802C196.899 55.7954 196.938 55.8106 196.981 55.8258C197.014 55.8349 197.042 55.8501 197.072 55.8653C197.127 55.8896 197.178 55.9109 197.23 55.9413C197.236 55.9413 197.245 55.9444 197.251 55.9504C197.26 55.9504 197.267 55.9565 197.276 55.9626C197.3 55.9748 197.327 55.99 197.349 56.0021C197.358 56.0052 197.37 56.0082 197.379 56.0173C197.412 56.0386 197.449 56.0538 197.479 56.0812C197.491 56.0842 197.507 56.0933 197.516 56.1055C197.555 56.1298 197.592 56.1602 197.631 56.1876H197.634C197.665 56.2088 197.695 56.2301 197.723 56.2575C197.753 56.2818 197.78 56.3031 197.802 56.3244C197.805 56.3213 197.808 56.3304 197.808 56.3304C197.829 56.3426 197.841 56.3548 197.862 56.376C197.893 56.4034 197.92 56.4247 197.941 56.452C197.957 56.4612 197.972 56.4764 197.978 56.4885C198.017 56.525 198.057 56.5645 198.09 56.6101C198.139 56.6679 198.191 56.7256 198.233 56.7895C198.331 56.9172 198.413 57.054 198.489 57.1999C198.498 57.2242 198.513 57.2455 198.522 57.2728C198.528 57.2789 198.531 57.288 198.534 57.3002C198.562 57.3488 198.583 57.4066 198.604 57.4644C198.628 57.5191 198.644 57.5708 198.662 57.6285C198.671 57.6528 198.677 57.6772 198.686 57.7045C198.692 57.7258 198.698 57.744 198.701 57.7653C198.714 57.8048 198.726 57.8474 198.732 57.896C198.738 57.9204 198.741 57.9386 198.744 57.9629L198.85 58.5132C198.902 58.7837 198.914 59.0512 198.89 59.3096C198.884 59.3917 198.875 59.4738 198.856 59.5559C198.844 59.638 198.826 59.72 198.802 59.7991C198.78 59.8781 198.756 59.9602 198.726 60.0362C198.698 60.1122 198.668 60.1912 198.631 60.2642C198.598 60.3372 198.562 60.4101 198.522 60.48C198.483 60.553 198.443 60.6199 198.394 60.6868C198.349 60.7536 198.297 60.8205 198.245 60.8844C198.194 60.9482 198.142 61.012 198.081 61.0668C198.023 61.1276 197.966 61.1884 197.902 61.237C197.841 61.2948 197.777 61.3434 197.71 61.392H197.707C197.64 61.4407 197.571 61.4893 197.501 61.5288C197.431 61.5744 197.358 61.617 197.279 61.6504C197.221 61.6839 197.157 61.7112 197.099 61.7295C197.099 61.7325 197.096 61.7295 197.096 61.7295C197.057 61.7447 197.017 61.7629 196.972 61.7751C196.972 61.7751 196.97 61.7761 196.966 61.7781C196.911 61.7994 196.859 61.8146 196.801 61.8328C196.719 61.8571 196.634 61.8754 196.546 61.8936L136.752 73.2602C136.397 73.3271 136.044 73.3271 135.71 73.2663C135.643 73.2571 135.579 73.242 135.515 73.2237H135.512C135.482 73.2176 135.454 73.2115 135.424 73.1994C135.409 73.1964 135.393 73.1933 135.384 73.1872C135.33 73.1781 135.278 73.1599 135.226 73.1386C135.144 73.1112 135.059 73.0748 134.983 73.0352C134.922 73.0109 134.867 72.9805 134.81 72.9471C134.612 72.8407 134.433 72.713 134.269 72.5549C134.238 72.5306 134.208 72.5002 134.177 72.4728C134.132 72.4303 134.089 72.3908 134.053 72.3421C134.016 72.3026 133.98 72.26 133.946 72.2144C133.91 72.1688 133.873 72.1202 133.84 72.0716C133.834 72.0685 133.831 72.0655 133.834 72.0624C133.797 72.0168 133.761 71.9651 133.734 71.9135C133.691 71.8405 133.651 71.7706 133.612 71.6916C133.539 71.5426 133.478 71.3815 133.43 71.2143C133.405 71.1322 133.387 71.0471 133.369 70.9589L133.262 70.4087C133.256 70.3752 133.253 70.3448 133.25 70.3114C133.238 70.2354 133.229 70.1563 133.223 70.0834C133.217 70.0074 133.214 69.9344 133.214 69.8584C133.214 69.6943 133.232 69.5271 133.256 69.3659V69.3751ZM74.2894 115.817C74.2195 115.814 74.1496 115.805 74.0796 115.79C74.0067 115.778 73.9368 115.762 73.8668 115.744C73.8364 115.738 73.803 115.732 73.7726 115.72C73.7604 115.717 73.7452 115.714 73.7331 115.711C73.6753 115.696 73.6206 115.677 73.5628 115.653C73.4868 115.626 73.4078 115.595 73.3348 115.559C73.2862 115.537 73.2376 115.516 73.192 115.486C73.1889 115.486 73.1828 115.486 73.1798 115.48C73.1403 115.458 73.1038 115.44 73.0673 115.416C73.0035 115.379 72.9427 115.34 72.8849 115.3C72.7694 115.221 72.6569 115.13 72.5566 115.03C72.511 114.984 72.4624 114.936 72.4198 114.89C72.3833 114.85 72.3468 114.811 72.3134 114.765C72.2891 114.741 72.2739 114.723 72.2587 114.698C72.2313 114.665 72.21 114.632 72.1857 114.598C72.1371 114.534 72.0945 114.467 72.055 114.397C72.0155 114.337 71.982 114.27 71.9516 114.206C71.9152 114.136 71.8848 114.063 71.8544 113.99C71.7905 113.826 71.7419 113.656 71.7084 113.476L65.9568 83.2101C65.8929 82.8757 65.8899 82.5413 65.9385 82.2252C65.9446 82.1674 65.9598 82.1096 65.9689 82.0519C65.972 82.0458 65.972 82.0397 65.975 82.0306C65.9872 81.9728 66.0024 81.9181 66.0176 81.8604C66.0328 81.7995 66.054 81.7448 66.0753 81.6871C66.1027 81.6111 66.1361 81.529 66.1696 81.4591C66.2 81.3952 66.2304 81.3344 66.2638 81.2797C66.279 81.2463 66.3003 81.2128 66.3216 81.1824C66.431 80.9909 66.5678 80.8116 66.7259 80.6535C66.7593 80.617 66.7988 80.5805 66.8353 80.5501C66.8627 80.5197 66.8931 80.4924 66.9174 80.4741C66.9843 80.4164 67.0512 80.3647 67.1241 80.313C67.1302 80.3069 67.1332 80.3039 67.1393 80.3008C67.1788 80.2674 67.2275 80.24 67.27 80.2127C67.2913 80.2005 67.3096 80.1853 67.3339 80.1762C67.3947 80.1367 67.4616 80.1032 67.5254 80.0728C67.5953 80.0364 67.6683 80.0059 67.7412 79.9755C67.9054 79.9117 68.0756 79.8631 68.255 79.8296L119.978 69.9983C120.011 69.9922 120.041 69.9892 120.075 69.9861C120.151 69.974 120.23 69.9648 120.303 69.9588C120.379 69.9527 120.452 69.9496 120.528 69.9496C120.54 69.9496 120.558 69.9496 120.573 69.9527C120.722 69.9527 120.871 69.9679 121.017 69.9922C121.181 70.0226 121.346 70.0652 121.498 70.1229C121.522 70.129 121.543 70.1411 121.564 70.1503C121.607 70.1624 121.653 70.1837 121.695 70.202C121.732 70.2171 121.765 70.2384 121.799 70.2567C121.838 70.2688 121.878 70.2901 121.914 70.3175C121.951 70.3387 121.987 70.36 122.023 70.3843C122.03 70.3813 122.039 70.3874 122.048 70.3965C122.081 70.4117 122.112 70.433 122.142 70.4543C122.276 70.5455 122.403 70.6488 122.519 70.7613C122.543 70.7856 122.568 70.8069 122.592 70.8343C122.625 70.8647 122.656 70.9011 122.686 70.9346C122.701 70.9498 122.717 70.968 122.729 70.9832C122.762 71.0197 122.793 71.0592 122.82 71.0988C122.89 71.1869 122.954 71.2781 123.008 71.3724C123.048 71.4362 123.081 71.5031 123.115 71.57C123.188 71.725 123.252 71.88 123.297 72.0472C123.322 72.1293 123.34 72.2144 123.358 72.3026L129.113 102.569C129.119 102.602 129.122 102.633 129.125 102.666C129.137 102.742 129.146 102.821 129.152 102.894C129.158 102.967 129.161 103.04 129.161 103.116C129.161 103.143 129.158 103.171 129.158 103.192C129.158 103.332 129.143 103.469 129.119 103.605C129.088 103.773 129.046 103.934 128.988 104.086C128.982 104.11 128.973 104.131 128.961 104.153C128.921 104.271 128.867 104.384 128.803 104.493C128.775 104.545 128.748 104.593 128.711 104.642C128.651 104.745 128.578 104.846 128.502 104.94C128.453 105.004 128.398 105.065 128.338 105.122C128.11 105.36 127.839 105.557 127.535 105.703C127.465 105.74 127.392 105.773 127.319 105.8C127.255 105.825 127.191 105.846 127.125 105.864C127.094 105.876 127.061 105.885 127.027 105.895C127.024 105.898 127.021 105.898 127.015 105.898C126.945 105.922 126.878 105.934 126.805 105.949L75.0828 115.781C74.8153 115.829 74.5478 115.845 74.2864 115.82L74.2894 115.817ZM76.9312 133.279C76.8825 133.285 76.8278 133.288 76.7761 133.288C76.767 133.288 76.7548 133.285 76.7457 133.285C76.7396 133.285 76.7366 133.285 76.7336 133.282C76.6515 133.258 76.4387 133.179 75.6787 132.838C75.6452 132.808 75.6148 132.774 75.5844 132.741C75.554 132.704 75.5236 132.668 75.4963 132.631L75.326 132.327C75.3108 132.285 75.2896 132.236 75.2744 132.194L75.2257 131.999C75.2166 131.95 75.2075 131.899 75.2014 131.844C75.1892 131.732 75.1923 131.613 75.2075 131.501C75.2105 131.461 75.2166 131.421 75.2288 131.382C75.2288 131.361 75.2318 131.345 75.2379 131.327C75.247 131.282 75.2622 131.233 75.2774 131.19C75.2956 131.136 75.3169 131.084 75.3412 131.032C75.3534 131.002 75.3686 130.975 75.3838 130.95C75.396 130.923 75.4112 130.896 75.4264 130.874C75.4872 130.771 75.5601 130.677 75.6422 130.592C75.703 130.528 75.7729 130.467 75.8459 130.415C75.9188 130.361 75.9948 130.315 76.08 130.275C76.162 130.236 76.2502 130.202 76.3414 130.175C76.387 130.163 76.4356 130.151 76.4812 130.142L206.159 105.493C206.259 105.472 206.359 105.466 206.456 105.466C206.469 105.466 206.481 105.466 206.493 105.469C206.56 105.481 206.748 105.551 207.557 105.91C207.56 105.91 207.56 105.913 207.563 105.913C207.596 105.946 207.627 105.98 207.657 106.013C207.688 106.047 207.718 106.083 207.745 106.12L207.764 106.147L207.907 106.408L207.995 106.664V106.67L208.022 106.758C208.08 107.05 208.049 107.333 207.952 107.594C207.94 107.637 207.922 107.682 207.897 107.722C207.882 107.761 207.861 107.801 207.837 107.843C207.809 107.895 207.779 107.941 207.745 107.983C207.718 108.023 207.688 108.059 207.654 108.096C207.615 108.144 207.566 108.19 207.52 108.232C207.481 108.269 207.438 108.305 207.39 108.339C207.317 108.393 207.241 108.439 207.156 108.479C207.071 108.518 206.985 108.552 206.894 108.579C206.849 108.597 206.8 108.606 206.751 108.615L134.646 122.32L77.0771 133.261C77.0254 133.27 76.9768 133.279 76.9281 133.282L76.9312 133.279ZM210.168 118.383C210.168 118.416 210.165 118.447 210.159 118.48C210.156 118.508 210.15 118.535 210.141 118.559C210.132 118.62 210.117 118.681 210.095 118.733C210.086 118.769 210.071 118.805 210.056 118.842C210.035 118.888 210.016 118.936 209.992 118.979C209.968 119.021 209.943 119.07 209.916 119.109C209.91 119.122 209.895 119.14 209.886 119.152C209.858 119.195 209.825 119.24 209.785 119.28C209.761 119.31 209.737 119.337 209.709 119.362C209.493 119.578 209.211 119.736 208.888 119.797L79.2112 144.445C78.9193 144.503 78.6305 144.472 78.3721 144.378C78.29 144.348 78.208 144.308 78.1289 144.265C78.0134 144.196 77.904 144.117 77.8067 144.022C77.7246 143.943 77.6516 143.855 77.5908 143.761C77.5696 143.733 77.5544 143.703 77.5361 143.673C77.5209 143.642 77.5027 143.612 77.4905 143.581C77.4692 143.545 77.454 143.505 77.4358 143.466C77.4024 143.375 77.375 143.284 77.3568 143.183C77.3203 142.989 77.3203 142.794 77.3537 142.612C77.3689 142.517 77.3932 142.432 77.4236 142.344C77.454 142.262 77.4905 142.18 77.5361 142.104C77.5665 142.055 77.5969 142.004 77.6304 141.958C77.6729 141.894 77.7246 141.837 77.7763 141.782C77.8401 141.718 77.907 141.657 77.98 141.605C78.0164 141.578 78.056 141.557 78.0924 141.533C78.1259 141.511 78.1593 141.493 78.1958 141.475C78.2292 141.46 78.2627 141.441 78.2992 141.429C78.3387 141.411 78.3782 141.396 78.4238 141.384C78.4876 141.362 78.5515 141.347 78.6184 141.332L208.296 116.684C208.396 116.662 208.496 116.656 208.594 116.656C208.639 116.656 208.688 116.656 208.733 116.662C208.825 116.668 208.913 116.687 209.001 116.708C209.05 116.72 209.098 116.738 209.144 116.753C209.351 116.826 209.539 116.948 209.7 117.1C209.764 117.164 209.825 117.231 209.876 117.304C209.904 117.34 209.928 117.38 209.949 117.416C209.971 117.45 209.989 117.483 210.007 117.52C210.025 117.553 210.041 117.586 210.053 117.623C210.071 117.662 210.086 117.702 210.098 117.748C210.12 117.811 210.135 117.875 210.147 117.942C210.168 118.045 210.177 118.146 210.174 118.246C210.174 118.289 210.174 118.334 210.168 118.38V118.383Z" fill="#AAAAAA"/>
<path d="M93.5509 253.219C91.0338 253.219 88.5775 252.469 86.4495 251.021C83.6497 249.115 81.7618 246.237 81.1295 242.911L80.4607 239.384L56.8186 115.024L51.3132 86.0468L48.5985 71.7801C47.4645 65.8095 50.7356 59.8602 56.3748 57.6319C57.0922 57.3431 57.8705 57.1151 58.6821 56.9601L198.449 30.3935C201.775 29.7612 205.149 30.4634 207.946 32.3665C210.743 34.2725 212.634 37.1514 213.266 40.4802L233.896 148.99L231.682 146.445C229.709 144.178 227.524 142.089 225.186 140.232C212.351 130.02 195.324 126.856 179.638 131.762C173.679 133.626 168.177 136.581 163.285 140.545C142.094 157.712 138.82 188.92 155.986 210.109C167.009 223.713 184.623 230.517 201.954 227.863C207.578 226.999 212.968 225.185 217.972 222.473L218.638 222.111L223.946 228.662L95.9495 252.991C95.15 253.143 94.3474 253.219 93.5509 253.219ZM200.839 31.9925C200.158 31.9925 199.474 32.0564 198.79 32.1871L59.0257 58.7537C58.3325 58.8874 57.6668 59.082 57.0497 59.3282C52.2191 61.2343 49.4193 66.3293 50.389 71.4396L53.1037 85.7063L58.6092 114.684L82.2513 239.044L82.9201 242.57C83.4612 245.416 85.0785 247.881 87.474 249.514C89.8695 251.143 92.7575 251.742 95.606 251.201L220.608 227.443L218.173 224.437C213.175 227.054 207.815 228.814 202.234 229.672C193.53 231.003 184.575 230.073 176.333 226.975C167.842 223.783 160.315 218.351 154.573 211.261C136.774 189.288 140.166 156.933 162.139 139.131C167.213 135.021 172.916 131.957 179.097 130.026C195.361 124.941 213.014 128.224 226.323 138.809C227.919 140.077 229.445 141.448 230.883 142.907L219.674 83.9431L211.476 40.8268C210.934 37.9783 209.317 35.5129 206.922 33.8804C205.101 32.6401 202.997 31.9956 200.842 31.9956L200.839 31.9925Z" fill="#AAAAAA"/>
<path d="M138.802 93.5281C138.513 93.5281 138.231 93.4794 137.966 93.3821C137.884 93.3548 137.808 93.3244 137.738 93.2879C137.69 93.2666 137.647 93.2423 137.611 93.221C137.559 93.1937 137.507 93.1633 137.452 93.1298C137.392 93.0933 137.334 93.0538 137.276 93.0052C137.237 92.9748 137.197 92.9444 137.161 92.9109C137.045 92.8137 136.942 92.7042 136.841 92.5765C136.796 92.5157 136.762 92.4671 136.732 92.4245C136.705 92.3881 136.674 92.3364 136.644 92.2877C136.568 92.154 136.513 92.0445 136.471 91.9321C136.416 91.8013 136.367 91.6433 136.34 91.4791C136.261 91.0535 136.297 90.6036 136.446 90.1932C136.474 90.1111 136.504 90.0351 136.544 89.9621C136.568 89.9104 136.592 89.8618 136.616 89.8162V89.7128L136.838 89.4848C136.838 89.4848 136.857 89.4605 136.869 89.4484C136.896 89.4149 136.92 89.3845 136.945 89.3572C136.966 89.3329 136.987 89.3116 137.012 89.2873L137.051 89.2477C137.051 89.2477 137.063 89.2356 137.069 89.2295V88.7613H137.763C137.945 88.6762 138.133 88.6154 138.334 88.5789L200.7 76.7229C200.928 76.6773 201.18 76.6652 201.417 76.6925C201.46 76.6956 201.517 76.7047 201.578 76.7138L201.66 76.729C201.986 76.7929 202.302 76.9236 202.572 77.109C202.636 77.1516 202.697 77.1972 202.752 77.2428C202.791 77.2762 202.834 77.3097 202.87 77.3461C202.913 77.3857 202.955 77.4252 202.995 77.4708C203.12 77.6015 203.226 77.7444 203.314 77.8933C203.332 77.9237 203.366 77.9815 203.39 78.0301C203.414 78.0727 203.445 78.1396 203.475 78.2125L203.503 78.2825C203.509 78.3007 203.515 78.3189 203.521 78.3372C203.542 78.3889 203.557 78.4375 203.566 78.477C203.576 78.5105 203.585 78.5439 203.591 78.5713C203.603 78.6168 203.612 78.6625 203.621 78.7141C203.633 78.7658 203.642 78.8297 203.652 78.8965L203.658 78.9421C203.691 79.2978 203.648 79.6657 203.527 80.0061C203.512 80.0548 203.493 80.0973 203.478 80.1368V80.301L203.296 80.4925C203.284 80.5138 203.268 80.5351 203.253 80.5564C203.199 80.6415 203.138 80.7236 203.071 80.7996C203.034 80.8452 202.989 80.8938 202.949 80.9333C202.882 81.0063 202.791 81.0884 202.691 81.1613C202.657 81.1887 202.621 81.213 202.588 81.2373C202.548 81.2677 202.505 81.2951 202.46 81.3194C202.39 81.362 202.329 81.3954 202.29 81.4137C202.062 81.5231 201.849 81.593 201.633 81.6356L139.276 93.4885C139.121 93.5159 138.966 93.5311 138.811 93.5311L138.802 93.5281ZM138.559 91.6554L138.583 91.6645C138.69 91.7041 138.811 91.7132 138.933 91.6919L201.289 79.8389C201.35 79.8268 201.405 79.8085 201.463 79.7812L201.584 79.7021C201.603 79.6869 201.618 79.6748 201.636 79.6565L201.8 79.4012C201.834 79.31 201.846 79.2157 201.84 79.1245C201.837 79.0972 201.834 79.0759 201.828 79.0546L201.788 78.9087C201.788 78.9087 201.776 78.8844 201.77 78.8722L201.752 78.8357C201.721 78.784 201.694 78.7506 201.663 78.7172L201.56 78.6199C201.472 78.5621 201.39 78.5287 201.302 78.5135L201.226 78.5013C201.156 78.4922 201.104 78.4953 201.055 78.5074L138.681 90.3634C138.62 90.3756 138.565 90.3938 138.513 90.4181L138.434 90.4637C138.434 90.4637 138.404 90.482 138.38 90.5033L138.246 90.6553C138.246 90.6553 138.234 90.6735 138.228 90.6826L138.17 90.8012C138.127 90.9106 138.118 91.0292 138.143 91.1538C138.149 91.1903 138.155 91.2146 138.167 91.2389C138.191 91.2967 138.206 91.3301 138.225 91.3636C138.225 91.3636 138.234 91.3788 138.246 91.397C138.267 91.4274 138.279 91.4456 138.292 91.4608C138.304 91.476 138.334 91.5065 138.361 91.5308L138.565 91.6585L138.559 91.6554ZM137.258 85.4568C136.069 85.4568 135.042 84.6178 134.814 83.4231C134.783 83.265 134.768 83.0978 134.771 82.9367C134.771 82.8607 134.771 82.7908 134.783 82.7178C134.796 82.5841 134.82 82.4564 134.85 82.3348C134.865 82.2709 134.884 82.2101 134.905 82.1524C134.951 82.0125 135.008 81.8788 135.081 81.7572C135.109 81.7025 135.142 81.6538 135.172 81.6021C135.212 81.5383 135.258 81.4775 135.303 81.4167L135.324 81.3893C135.358 81.3498 135.41 81.286 135.48 81.2161C135.528 81.1644 135.577 81.1157 135.628 81.0732C135.756 80.9577 135.881 80.8756 135.975 80.8178C136.221 80.6658 136.501 80.5594 136.799 80.5017L199.164 68.6457C199.611 68.5636 200.064 68.6001 200.481 68.7521C200.66 68.8159 200.83 68.901 200.988 69.0044C201.013 69.0196 201.04 69.0348 201.064 69.053C201.11 69.0834 201.15 69.1138 201.183 69.1412C201.241 69.1868 201.314 69.2476 201.381 69.3145L200.77 69.9954L201.378 69.3661L201.387 69.3722L201.411 69.3479C201.445 69.3813 201.475 69.4117 201.502 69.4452L201.806 69.6367V69.8769C201.91 70.0593 201.983 70.2325 202.034 70.418C202.059 70.497 202.077 70.5791 202.092 70.6642C202.128 70.8618 202.141 71.0837 202.122 71.3026C202.122 71.3482 202.116 71.3938 202.107 71.4394C202.104 71.4789 202.095 71.5185 202.086 71.5549C202.077 71.6005 202.068 71.6431 202.059 71.6887C202.046 71.7373 202.031 71.7921 202.016 71.8407C202.007 71.8741 201.995 71.9137 201.977 71.9562C201.949 72.0474 201.913 72.1204 201.891 72.166C201.867 72.2177 201.843 72.2663 201.812 72.318C201.785 72.3666 201.758 72.4122 201.727 72.4609C201.691 72.5186 201.648 72.5794 201.603 72.6402C201.478 72.8013 201.344 72.9351 201.198 73.0476C201.171 73.0719 201.144 73.0932 201.113 73.1145L201.064 73.1509C200.776 73.3546 200.45 73.4914 200.101 73.5553L137.738 85.4082C137.677 85.4204 137.608 85.4295 137.541 85.4386H137.507C137.425 85.4508 137.343 85.4538 137.264 85.4538L137.258 85.4568ZM136.753 82.5202C136.741 82.5354 136.729 82.5506 136.717 82.5688L136.653 82.6753C136.653 82.6753 136.647 82.6874 136.635 82.7208C136.626 82.7452 136.623 82.7604 136.62 82.7756L136.607 82.8242C136.607 82.8242 136.601 82.8516 136.598 82.8881L136.592 82.9458V82.9701V82.9853C136.592 82.9945 136.592 83.0279 136.601 83.0765C136.665 83.4201 136.975 83.6572 137.313 83.6328C137.337 83.6298 137.361 83.6268 137.386 83.6207L199.754 71.7677C199.842 71.7495 199.924 71.7191 199.997 71.6705L200.07 71.6097C200.098 71.5914 200.122 71.5641 200.143 71.5367C200.149 71.5306 200.165 71.5124 200.177 71.4911C200.195 71.4637 200.207 71.4425 200.219 71.4242L200.244 71.3786C200.244 71.3786 200.253 71.3513 200.259 71.3361L200.298 71.1628C200.304 71.102 200.298 71.0381 200.289 70.9713L200.277 70.9287C200.259 70.8649 200.235 70.8071 200.201 70.7524C200.201 70.7524 200.198 70.7463 200.192 70.7402L200.149 70.6825C200.149 70.6825 200.128 70.6581 200.119 70.646L200.098 70.6247C200.076 70.6034 200.064 70.5943 200.049 70.5821L199.97 70.5305C199.94 70.5092 199.906 70.4909 199.873 70.4788L199.852 70.4697C199.739 70.4271 199.62 70.418 199.496 70.4423L137.139 82.2952C137.06 82.3104 136.99 82.3378 136.927 82.3773C136.875 82.4077 136.863 82.4199 136.86 82.4229L136.753 82.5233V82.5202ZM200.241 71.3969C200.241 71.3969 200.232 71.4242 200.229 71.4394C200.232 71.4273 200.238 71.4121 200.241 71.3969ZM136.212 74.2332C135.99 74.2332 135.768 74.2149 135.549 74.1754C135.47 74.1633 135.382 74.145 135.297 74.1207C135.261 74.1116 135.227 74.1025 135.191 74.0933C135.169 74.0873 135.148 74.0812 135.121 74.0751C135.045 74.0569 134.972 74.0325 134.902 74.0021C134.805 73.9687 134.704 73.9261 134.604 73.8745C134.498 73.8288 134.409 73.7802 134.352 73.7468C134.108 73.6161 133.874 73.4489 133.665 73.2513C133.625 73.2178 133.586 73.1813 133.549 73.1418C133.497 73.0932 133.431 73.0293 133.364 72.9473C133.324 72.9017 133.282 72.853 133.245 72.8074L133.026 72.701L132.975 72.4305C132.962 72.4092 132.95 72.3879 132.938 72.3666C132.886 72.2785 132.838 72.1903 132.792 72.0991C132.704 71.9167 132.625 71.713 132.558 71.4881C132.525 71.3634 132.497 71.257 132.476 71.1415L132.37 70.5913C132.36 70.5426 132.354 70.494 132.348 70.4423C132.333 70.3541 132.327 70.269 132.318 70.1839C132.309 70.0684 132.303 69.9681 132.303 69.8677C132.303 69.6641 132.321 69.4482 132.357 69.2263V69.2111C132.436 68.7946 132.579 68.3964 132.783 68.0285C132.792 68.0073 132.81 67.9708 132.841 67.9282C132.886 67.8492 132.935 67.7793 132.972 67.7215C133.044 67.6121 133.127 67.5057 133.224 67.3932C133.242 67.3689 133.269 67.3385 133.3 67.305V66.7791L133.777 66.773L133.856 66.6119L134.166 66.6028C134.26 66.545 134.343 66.5024 134.428 66.4599C134.528 66.4113 134.613 66.3748 134.701 66.3413C134.72 66.3353 134.735 66.3292 134.75 66.3231L134.805 66.2957L134.875 66.2775C134.911 66.2653 134.944 66.2532 134.978 66.241L135.005 66.2258L135.112 66.2015C135.212 66.1741 135.312 66.1498 135.413 66.1316L195.191 54.7681C195.313 54.7437 195.428 54.7285 195.538 54.7194C195.681 54.7012 195.808 54.7012 195.903 54.7012C195.979 54.7012 196.073 54.7012 196.179 54.7133C196.194 54.7133 196.21 54.7133 196.222 54.7133L196.289 54.7194C196.365 54.7285 196.444 54.7377 196.52 54.7498L196.596 54.765C196.675 54.7802 196.751 54.7985 196.83 54.8167C196.866 54.8228 196.906 54.8349 196.951 54.8501C197.015 54.8684 197.079 54.8866 197.146 54.9079L197.24 54.9444C197.258 54.9505 197.277 54.9565 197.292 54.9657C197.35 54.9839 197.398 55.0082 197.441 55.0264H197.775L197.918 55.2788C197.918 55.2788 197.948 55.297 197.964 55.3092C197.991 55.3274 198.018 55.3456 198.046 55.3639C198.076 55.3852 198.104 55.4034 198.134 55.4277C198.161 55.446 198.186 55.4642 198.21 55.4824L198.487 55.5463L198.581 55.8108C198.605 55.8321 198.626 55.8564 198.648 55.8807C198.699 55.9324 198.745 55.981 198.785 56.0327C198.854 56.1148 198.915 56.1877 198.967 56.2607C199.079 56.4097 199.183 56.5768 199.274 56.7501L199.316 56.7927L199.371 56.9508C199.399 57.0085 199.426 57.0724 199.45 57.1393C199.478 57.2061 199.502 57.276 199.523 57.349C199.535 57.3855 199.548 57.422 199.557 57.4584C199.566 57.4828 199.572 57.5101 199.578 57.5344C199.596 57.5952 199.611 57.656 199.62 57.7199C199.627 57.7533 199.633 57.7837 199.639 57.8172L199.742 58.3492C199.809 58.7079 199.827 59.0605 199.794 59.401C199.785 59.5074 199.769 59.6199 199.751 59.7263C199.733 59.8418 199.709 59.9482 199.681 60.0485C199.654 60.1489 199.62 60.2553 199.581 60.3617C199.541 60.4772 199.499 60.5745 199.453 60.6657C199.411 60.7599 199.362 60.8541 199.31 60.9423C199.262 61.0305 199.204 61.1247 199.137 61.222C199.076 61.3071 199.009 61.3983 198.94 61.4834C198.9 61.5351 198.824 61.6293 198.724 61.7236C198.663 61.7874 198.587 61.8634 198.496 61.9394C198.414 62.0154 198.325 62.0823 198.228 62.1522L198.006 62.3073V62.3589L197.559 62.5383C197.535 62.5505 197.508 62.5596 197.48 62.5717L197.359 62.6994H197.155L196.863 62.818L196.824 62.7785C196.787 62.7876 196.754 62.7937 196.717 62.7997L136.92 74.1663C136.683 74.2119 136.443 74.2332 136.206 74.2332H136.212ZM135.774 72.3575L135.793 72.3636C135.811 72.3696 135.829 72.3727 135.847 72.3757C136.106 72.4213 136.346 72.4213 136.586 72.3757L196.38 61.0092C196.413 61.0031 196.444 60.997 196.474 60.9879L196.918 60.8237C196.945 60.8116 196.97 60.7964 196.997 60.7812L197.052 60.7477C197.088 60.7265 197.128 60.7021 197.161 60.6748L197.271 60.5927H197.274L197.337 60.5349C197.368 60.5106 197.392 60.4833 197.42 60.4559L197.456 60.4194C197.483 60.3921 197.508 60.3617 197.529 60.3343C197.584 60.2705 197.614 60.2249 197.648 60.1823C197.678 60.1397 197.699 60.1033 197.724 60.0607C197.76 59.9969 197.784 59.9482 197.806 59.8996L197.821 59.8692C197.839 59.8297 197.854 59.7901 197.869 59.7506L197.882 59.7202C197.897 59.6777 197.912 59.6351 197.924 59.5925L197.933 59.5591C197.945 59.5165 197.955 59.4709 197.961 59.4284L197.967 59.3949C197.976 59.3463 197.982 59.3007 197.985 59.2551C198.003 59.0697 197.991 58.8842 197.958 58.6957L197.787 57.8993C197.781 57.881 197.778 57.8628 197.769 57.8445L197.678 57.6348C197.678 57.6348 197.669 57.6196 197.666 57.6104C197.617 57.5162 197.565 57.4341 197.508 57.3581L197.483 57.3217C197.459 57.2882 197.435 57.2578 197.407 57.2274L197.243 57.0633L196.976 56.8687H196.699L196.584 56.6559C196.584 56.6559 196.559 56.6468 196.547 56.6407C196.514 56.6285 196.48 56.6194 196.444 56.6103L196.386 56.5951C196.349 56.586 196.31 56.5769 196.27 56.5677C196.243 56.5647 196.216 56.5586 196.188 56.5525C196.173 56.5525 196.155 56.5495 196.14 56.5464L195.988 56.5343C195.963 56.5343 195.936 56.5343 195.903 56.5343C195.86 56.5343 195.814 56.5343 195.769 56.5373L195.702 56.5434C195.644 56.5465 195.583 56.5556 195.526 56.5677L135.738 67.9343C135.701 67.9404 135.671 67.9465 135.641 67.9556L135.598 67.9677L135.328 68.0589C135.291 68.0711 135.258 68.0893 135.221 68.1045C135.197 68.1167 135.166 68.1319 135.133 68.1501L135.106 68.2018L134.969 68.2717L134.92 68.3204L134.768 68.6031H134.595L134.546 68.6517C134.519 68.6852 134.498 68.7125 134.482 68.7399L134.464 68.7673C134.446 68.7916 134.428 68.8189 134.412 68.8463L134.34 68.9801C134.251 69.1533 134.188 69.3418 134.151 69.5394C134.133 69.661 134.121 69.7735 134.121 69.8738C134.121 69.9225 134.121 69.9681 134.127 70.0197C134.133 70.0714 134.136 70.1201 134.142 70.1687L134.26 70.798C134.273 70.8618 134.288 70.9196 134.303 70.9804C134.336 71.0929 134.379 71.2053 134.428 71.3057C134.452 71.3573 134.476 71.3999 134.504 71.4455L134.564 71.5337L134.771 71.7981C134.771 71.7981 134.783 71.8103 134.792 71.8194L134.893 71.9137C134.99 72.0079 135.103 72.09 135.239 72.1629C135.279 72.1873 135.294 72.1964 135.309 72.2024L135.397 72.242C135.449 72.2693 135.483 72.2815 135.498 72.2845L135.577 72.3119L135.732 72.3423L135.765 72.3666L135.774 72.3575ZM134.181 66.5937C134.181 66.5937 134.172 66.5997 134.169 66.5997L134.181 66.5937ZM197.675 57.6104C197.675 57.6104 197.684 57.6348 197.69 57.6469L197.678 57.6104H197.675ZM196.03 56.5282C196.03 56.5282 196.058 56.5313 196.07 56.5343L196.03 56.5282ZM74.5427 116.741C74.4363 116.741 74.333 116.738 74.2296 116.729C74.1293 116.723 74.0259 116.711 73.9104 116.69C73.8253 116.675 73.7371 116.656 73.6459 116.632C73.6064 116.623 73.5669 116.614 73.5304 116.602L73.4726 116.586C73.3936 116.562 73.3176 116.541 73.2386 116.51C73.1413 116.477 73.0531 116.441 72.9711 116.401H72.6306L72.4907 116.14C72.4512 116.115 72.4087 116.088 72.3691 116.061C72.1959 115.942 72.0408 115.814 71.904 115.677C71.8463 115.62 71.7915 115.565 71.7429 115.513C71.6973 115.465 71.6547 115.416 71.6152 115.367C71.5727 115.322 71.5362 115.276 71.5058 115.228C71.4845 115.2 71.4632 115.17 71.445 115.142C71.375 115.048 71.3203 114.96 71.2717 114.878C71.2139 114.784 71.1653 114.696 71.1288 114.617C71.0832 114.525 71.0437 114.434 71.0042 114.34C70.913 114.103 70.8461 113.872 70.8035 113.647L65.0518 83.3836C64.9698 82.958 64.9637 82.5263 65.0275 82.1007C65.0336 82.046 65.0458 81.9913 65.0549 81.9365L65.1035 81.7268C65.1126 81.6842 65.1248 81.6447 65.137 81.6021C65.1552 81.5383 65.1795 81.4653 65.2069 81.3893C65.2464 81.2769 65.292 81.1644 65.3406 81.0671C65.3771 80.9881 65.4167 80.9121 65.4562 80.8391C65.4805 80.7905 65.5079 80.7449 65.5383 80.7023C65.6842 80.453 65.8605 80.225 66.0611 80.0213C66.1098 79.9666 66.1615 79.921 66.204 79.8845C66.2466 79.842 66.2922 79.7994 66.3408 79.7629C66.4016 79.7113 66.4655 79.6596 66.5323 79.614L66.584 79.5623L66.6509 79.5258C66.6904 79.4985 66.733 79.4711 66.7725 79.4468C66.7907 79.4346 66.8272 79.4103 66.8819 79.3799C66.9671 79.3282 67.0491 79.2857 67.116 79.2553C67.2072 79.2097 67.3015 79.1701 67.3957 79.1306C67.6328 79.0394 67.8608 78.9725 68.0888 78.93L119.808 69.0986C119.854 69.0895 119.903 69.0834 119.954 69.0773C120.042 69.0621 120.128 69.0561 120.213 69.0469C120.328 69.0378 120.428 69.0317 120.529 69.0317C120.556 69.0317 120.593 69.0317 120.632 69.0348C120.796 69.0348 120.967 69.053 121.164 69.0865C121.398 69.129 121.605 69.1837 121.796 69.2537C121.833 69.2658 121.872 69.281 121.912 69.2962C121.942 69.3084 121.973 69.3205 122.006 69.3327L122.079 69.3631C122.116 69.3783 122.149 69.3965 122.186 69.4148C122.262 69.4482 122.338 69.4847 122.408 69.5333C122.417 69.5394 122.429 69.5455 122.438 69.5516C122.49 69.5759 122.538 69.6063 122.584 69.6397C122.608 69.6549 122.632 69.6701 122.657 69.6853C122.842 69.81 123.009 69.9468 123.168 70.0988C123.201 70.1322 123.231 70.1596 123.256 70.1839C123.292 70.2204 123.329 70.2599 123.362 70.2964C123.383 70.3177 123.411 70.3511 123.441 70.3845C123.487 70.4362 123.529 70.4909 123.569 70.5487C123.654 70.6581 123.733 70.7737 123.803 70.8953C123.855 70.9804 123.9 71.0655 123.943 71.1537C124.052 71.3847 124.131 71.5884 124.189 71.7921C124.219 71.8985 124.244 72.0079 124.268 72.1204L130.023 102.39C130.032 102.438 130.038 102.484 130.044 102.536C130.056 102.624 130.065 102.709 130.074 102.791C130.084 102.9 130.09 103.001 130.09 103.104C130.09 103.137 130.09 103.168 130.087 103.201C130.087 103.372 130.068 103.545 130.035 103.749C129.995 103.967 129.941 104.174 129.871 104.369C129.859 104.408 129.843 104.448 129.825 104.487C129.77 104.636 129.7 104.788 129.612 104.937C129.594 104.974 129.555 105.047 129.497 105.129C129.421 105.253 129.333 105.378 129.226 105.509C129.162 105.588 129.086 105.676 129.001 105.758C128.709 106.062 128.354 106.32 127.952 106.515C127.867 106.561 127.758 106.609 127.648 106.649C127.609 106.664 127.569 106.676 127.53 106.691L127.424 106.798H127.162C127.098 106.816 127.04 106.828 126.989 106.837L75.2693 116.669C75.0291 116.714 74.792 116.735 74.5549 116.735L74.5427 116.741ZM74.032 114.848L74.1171 114.869C74.1597 114.881 74.1992 114.887 74.2448 114.896C74.2813 114.902 74.3087 114.908 74.336 114.908H74.3755C74.5518 114.927 74.7373 114.917 74.9197 114.884L126.642 105.053C126.673 105.047 126.7 105.044 126.724 105.037H126.73C126.73 105.037 126.733 105.037 126.736 105.034L126.913 104.983C126.946 104.974 126.98 104.961 127.01 104.949C127.053 104.934 127.089 104.916 127.123 104.898C127.354 104.785 127.533 104.654 127.688 104.493C127.737 104.445 127.767 104.411 127.794 104.375C127.858 104.296 127.901 104.235 127.931 104.186L127.983 104.107C127.983 104.107 127.995 104.083 128.004 104.068C128.056 103.977 128.083 103.916 128.104 103.858L128.138 103.773C128.174 103.669 128.205 103.56 128.226 103.445C128.244 103.344 128.25 103.262 128.25 103.192C128.25 103.162 128.25 103.128 128.253 103.095C128.253 103.068 128.253 103.022 128.247 102.976C128.241 102.919 128.238 102.87 128.229 102.821L128.22 102.754L122.462 72.473C122.45 72.4122 122.438 72.3545 122.42 72.2937C122.392 72.1903 122.35 72.0869 122.292 71.9623C122.28 71.938 122.262 71.8954 122.237 71.8589L122.216 71.8255C122.186 71.7708 122.149 71.7191 122.11 71.6705L121.876 71.4029C121.821 71.3482 121.757 71.2965 121.69 71.2449L121.599 71.1871L121.325 71.0321L121.179 70.9743C121.082 70.9378 120.967 70.9074 120.851 70.8861C120.748 70.8709 120.653 70.8618 120.571 70.8618H120.471C120.441 70.8618 120.41 70.8618 120.38 70.8649C120.328 70.8709 120.28 70.874 120.231 70.8801L120.167 70.8892L68.4232 80.7236C68.3016 80.7449 68.1861 80.7783 68.0675 80.8239C68.0341 80.8361 67.9885 80.8543 67.9429 80.8786L67.9095 80.8968C67.8851 80.909 67.8578 80.9212 67.8335 80.9364L67.6055 81.0853C67.569 81.1127 67.5355 81.1401 67.4991 81.1705L67.3592 81.3012C67.2619 81.3985 67.1707 81.517 67.0978 81.6417L67.037 81.742C67.0157 81.7754 67.0005 81.8119 66.9823 81.8514C66.961 81.894 66.9427 81.9426 66.9275 81.9882C66.9123 82.0338 66.8971 82.0672 66.888 82.1037C66.8728 82.1584 66.8637 82.201 66.8546 82.2405L66.8303 82.3682C66.7968 82.5901 66.7998 82.8181 66.8424 83.0431L72.5941 113.309C72.6154 113.431 72.6488 113.546 72.6944 113.665C72.7066 113.695 72.7248 113.744 72.7491 113.79L72.7643 113.82C72.7765 113.844 72.7886 113.872 72.8038 113.896L72.8373 113.948C72.8555 113.978 72.8707 114.009 72.892 114.036L72.9224 114.075C72.9346 114.094 72.9467 114.112 72.9619 114.13L73.0258 114.212C73.044 114.233 73.0623 114.255 73.0805 114.273C73.1109 114.306 73.1474 114.343 73.1838 114.379C73.2477 114.443 73.3146 114.498 73.3875 114.55C73.3997 114.559 73.4149 114.568 73.4301 114.577H73.4514L73.6368 114.696L73.7766 114.765C73.804 114.778 73.8283 114.787 73.8557 114.796L73.9043 114.814C73.9226 114.82 73.9408 114.826 73.9591 114.832L74.0563 114.86L74.0229 114.851L74.032 114.848ZM121.383 71.0473C121.383 71.0473 121.389 71.0503 121.392 71.0533L121.383 71.0473ZM76.7802 134.203L76.6525 134.194C76.5765 134.185 76.5005 134.17 76.4275 134.142C76.2968 134.1 76.0536 134.006 75.3058 133.671L75.1751 133.613L75.0686 133.519C75.0109 133.468 74.9562 133.41 74.9045 133.352L74.8802 133.325C74.8376 133.273 74.7981 133.221 74.7586 133.17L74.7008 133.078L74.4758 132.659C74.4424 132.577 74.4211 132.519 74.4059 132.464L74.333 132.182C74.3178 132.109 74.3086 132.039 74.2995 131.96C74.2782 131.771 74.2782 131.586 74.3056 131.397C74.3117 131.343 74.3208 131.288 74.3299 131.236C74.336 131.188 74.3482 131.139 74.3603 131.09C74.3755 131.023 74.3968 130.957 74.4181 130.896C74.4454 130.814 74.4819 130.732 74.5154 130.653C74.5336 130.61 74.5579 130.564 74.5853 130.513C74.6066 130.473 74.6309 130.431 74.6522 130.394C74.7434 130.242 74.8559 130.096 74.9866 129.962C75.0778 129.865 75.1903 129.768 75.3118 129.68C75.4334 129.592 75.5551 129.519 75.6888 129.455C75.8165 129.394 75.9503 129.342 76.084 129.303C76.157 129.281 76.2208 129.266 76.2846 129.254L205.989 104.6C206.129 104.572 206.287 104.557 206.457 104.557C206.491 104.557 206.576 104.557 206.682 104.581C206.813 104.609 206.941 104.648 207.749 105.004H208.476V105.582C208.476 105.582 208.479 105.588 208.482 105.591L208.534 105.673L208.74 106.044L208.914 106.591C208.999 107.026 208.962 107.476 208.813 107.895C208.786 107.98 208.753 108.056 208.716 108.129C208.692 108.184 208.665 108.239 208.631 108.293C208.589 108.372 208.54 108.448 208.485 108.521C208.443 108.582 208.397 108.64 208.345 108.698C208.269 108.789 208.196 108.856 208.142 108.907C208.069 108.974 207.996 109.035 207.92 109.09C207.804 109.175 207.68 109.248 207.549 109.312C207.427 109.369 207.303 109.418 207.172 109.458C207.093 109.485 207.014 109.503 206.929 109.521L134.814 123.226L77.2453 134.167C77.1754 134.182 77.0963 134.191 77.0143 134.197C76.9322 134.206 76.8501 134.212 76.7711 134.212L76.7802 134.203ZM76.2421 132.09C76.5978 132.249 76.7863 132.328 76.8866 132.367C76.8927 132.367 76.8987 132.367 76.9018 132.367L134.479 121.423L206.609 107.716L206.64 107.707C206.682 107.694 206.725 107.676 206.764 107.658C206.795 107.643 206.825 107.625 206.859 107.6C206.88 107.585 206.895 107.573 206.907 107.561C206.92 107.549 206.938 107.533 206.953 107.518L207.05 107.381L207.096 107.278C207.135 107.172 207.148 107.065 207.129 106.959L207.068 106.785L207.002 106.667C206.64 106.509 206.451 106.43 206.354 106.39C206.348 106.39 206.345 106.39 206.339 106.39L76.6525 131.042C76.6525 131.042 76.616 131.048 76.5917 131.057C76.5583 131.066 76.5157 131.084 76.4762 131.102C76.4458 131.118 76.4154 131.136 76.385 131.157C76.3424 131.188 76.3181 131.212 76.3059 131.224C76.2634 131.27 76.236 131.303 76.2147 131.34L76.1722 131.416C76.157 131.446 76.1509 131.461 76.1448 131.476L76.1083 131.644C76.1023 131.68 76.1023 131.72 76.1053 131.747C76.1053 131.765 76.1114 131.786 76.1144 131.808L76.1479 131.941L76.236 132.1L76.2421 132.09ZM76.0931 131.662V131.671C76.0931 131.671 76.0931 131.665 76.0931 131.662ZM76.1783 131.409L76.1661 131.434C76.1661 131.434 76.1752 131.419 76.1783 131.409ZM207.114 107.254C207.114 107.254 207.114 107.257 207.114 107.26V107.254ZM78.9112 145.39C78.6224 145.39 78.3336 145.339 78.057 145.238C77.9111 145.187 77.7864 145.12 77.6922 145.071L77.6557 145.05C77.4763 144.944 77.3152 144.819 77.1723 144.679C77.0538 144.564 76.9443 144.436 76.841 144.287C76.8045 144.235 76.768 144.177 76.7376 144.12C76.7133 144.074 76.689 144.032 76.6707 143.989C76.6434 143.934 76.616 143.877 76.5917 143.816L76.5795 143.782C76.5278 143.646 76.4883 143.506 76.461 143.36C76.4032 143.05 76.4002 142.746 76.4549 142.448C76.4792 142.314 76.5127 142.18 76.5613 142.043C76.616 141.888 76.6798 141.755 76.7558 141.627C76.7954 141.56 76.8379 141.49 76.8866 141.423C76.9595 141.317 77.0477 141.22 77.1146 141.15C77.2362 141.025 77.3395 140.937 77.4429 140.861C77.4885 140.827 77.5341 140.797 77.5797 140.77L77.6223 140.742C77.68 140.709 77.7378 140.675 77.7986 140.645C77.8533 140.618 77.905 140.593 77.9627 140.572C78.0235 140.548 78.0874 140.523 78.1542 140.502C78.2424 140.475 78.3367 140.45 78.437 140.429L208.123 115.778C208.33 115.738 208.573 115.717 208.826 115.747C208.962 115.76 209.099 115.784 209.239 115.82C209.309 115.839 209.379 115.863 209.449 115.887C209.774 116.003 210.069 116.188 210.33 116.437C210.449 116.556 210.537 116.659 210.613 116.763C210.647 116.808 210.677 116.854 210.704 116.9L210.732 116.945C210.768 117.003 210.799 117.058 210.826 117.118C210.853 117.173 210.878 117.228 210.902 117.286C210.926 117.346 210.951 117.41 210.972 117.477C210.999 117.565 211.024 117.66 211.045 117.76C211.081 117.939 211.093 118.106 211.087 118.274C211.087 118.316 211.087 118.374 211.081 118.441C211.081 118.502 211.072 118.562 211.06 118.626C211.054 118.663 211.048 118.702 211.039 118.739C211.024 118.818 211.002 118.918 210.96 119.028C210.941 119.088 210.917 119.152 210.89 119.213C210.862 119.277 210.832 119.344 210.799 119.408C210.768 119.465 210.732 119.526 210.698 119.581C210.677 119.614 210.659 119.645 210.637 119.669C210.586 119.745 210.531 119.818 210.467 119.882C210.431 119.924 210.394 119.964 210.355 120.003C209.996 120.362 209.546 120.599 209.054 120.69L79.3794 145.339C79.2243 145.369 79.0693 145.384 78.9112 145.384V145.39ZM78.5799 143.478C78.6133 143.497 78.6437 143.512 78.6771 143.524C78.7592 143.554 78.8839 143.582 79.0328 143.554L208.713 118.906C208.847 118.882 208.962 118.821 209.06 118.724L209.154 118.608C209.166 118.59 209.178 118.569 209.187 118.55C209.196 118.535 209.203 118.514 209.212 118.493L209.254 118.347L209.26 118.252C209.26 118.195 209.26 118.164 209.251 118.122C209.245 118.094 209.236 118.061 209.227 118.03L209.133 117.842C209.117 117.821 209.087 117.787 209.051 117.751C208.993 117.696 208.917 117.647 208.835 117.617C208.81 117.608 208.786 117.599 208.762 117.593C208.713 117.581 208.683 117.574 208.661 117.574L208.601 117.568H208.589C208.54 117.568 208.5 117.574 208.47 117.581L78.7835 142.232C78.7592 142.238 78.7258 142.244 78.6954 142.256L78.5069 142.35C78.4856 142.366 78.4522 142.393 78.4157 142.433C78.4157 142.436 78.3914 142.457 78.3762 142.481C78.3458 142.524 78.3306 142.554 78.3123 142.581C78.2971 142.606 78.285 142.63 78.2759 142.661C78.2637 142.697 78.2515 142.737 78.2455 142.779C78.2303 142.861 78.2303 142.94 78.2455 143.019C78.2515 143.059 78.2637 143.098 78.2789 143.141L78.3275 143.238L78.3427 143.259C78.3762 143.308 78.4035 143.345 78.437 143.375C78.4795 143.417 78.5251 143.451 78.5799 143.487V143.478Z" fill="#AAAAAA"/>
<g opacity="0.5">
<path d="M119.974 69.9994L68.2494 79.8288C66.6792 80.1272 65.6482 81.6421 65.9466 83.2123L71.6976 113.475C71.996 115.045 73.5108 116.076 75.0811 115.778L126.805 105.948C128.375 105.65 129.406 104.135 129.108 102.565L123.357 72.3022C123.059 70.732 121.544 69.7009 119.974 69.9994Z" fill="#AAAAAA"/>
<path d="M135.57 67.0359L195.363 55.6729C196.931 55.3749 198.449 56.4078 198.747 57.9757L198.851 58.5253C199.149 60.0932 198.116 61.6108 196.549 61.9088L136.755 73.2718C135.187 73.5697 133.669 72.5368 133.371 70.9689L133.267 70.4194C132.969 68.8514 134.002 67.3338 135.57 67.0359Z" fill="#AAAAAA"/>
<path d="M199.332 69.5459L136.97 81.3989C136.109 81.5631 135.544 82.393 135.708 83.2533C135.872 84.1136 136.702 84.6791 137.562 84.5149L199.925 72.6619C200.785 72.4978 201.351 71.6679 201.187 70.8075C201.022 69.9472 200.193 69.3818 199.332 69.5459ZM200.867 77.6171L138.505 89.4701C137.645 89.6343 137.079 90.4642 137.243 91.3245C137.407 92.1848 138.237 92.7503 139.098 92.5861L201.46 80.7331C202.321 80.569 202.886 79.7391 202.722 78.8787C202.558 78.0184 201.728 77.453 200.867 77.6171Z" fill="#AAAAAA"/>
<path d="M206.16 105.505L76.4809 130.149C75.6199 130.313 75.0545 131.143 75.2181 132.004C75.3818 132.865 76.2124 133.431 77.0734 133.267L206.752 108.623C207.613 108.46 208.179 107.629 208.015 106.768C207.851 105.907 207.021 105.342 206.16 105.505Z" fill="#AAAAAA"/>
<path d="M208.288 116.684L78.6103 141.332C77.7499 141.496 77.1845 142.326 77.3487 143.186C77.5128 144.047 78.3427 144.612 79.2031 144.448L208.88 119.8C209.741 119.635 210.306 118.806 210.142 117.945C209.978 117.085 209.148 116.519 208.288 116.684Z" fill="#AAAAAA"/>
</g>
<path d="M82.0272 168.68C81.5986 168.68 81.2155 168.376 81.1334 167.938C81.0392 167.443 81.3645 166.965 81.86 166.871L123.836 158.891C124.329 158.797 124.809 159.122 124.903 159.618C124.998 160.113 124.672 160.591 124.177 160.685L82.2005 168.665C82.1427 168.677 82.085 168.68 82.0302 168.68H82.0272ZM84.903 183.81C84.4744 183.81 84.0914 183.506 84.0093 183.068C83.915 182.573 84.2403 182.096 84.7358 182.001L126.712 174.021C127.205 173.927 127.685 174.252 127.779 174.748C127.873 175.243 127.548 175.721 127.053 175.815L85.0763 183.795C85.0186 183.807 84.9608 183.81 84.9061 183.81H84.903ZM87.7789 198.943C87.3502 198.943 86.9672 198.639 86.8851 198.201C86.7909 197.706 87.1162 197.229 87.6117 197.134L129.588 189.154C130.08 189.06 130.561 189.385 130.655 189.881C130.749 190.377 130.424 190.854 129.928 190.948L87.9522 198.928C87.8944 198.94 87.8366 198.943 87.7819 198.943H87.7789ZM90.6547 214.076C90.2261 214.076 89.843 213.772 89.761 213.335C89.6667 212.839 89.992 212.362 90.4875 212.268L132.464 204.288C132.959 204.193 133.437 204.519 133.531 205.014C133.625 205.51 133.3 205.987 132.804 206.081L90.828 214.061C90.7702 214.073 90.7125 214.076 90.6578 214.076H90.6547Z" fill="#AAAAAA"/>
<path opacity="0.5" d="M233.56 147.267C233.171 146.786 232.776 146.315 232.371 145.853C230.328 143.506 228.109 141.393 225.753 139.524C212.599 129.06 195.116 125.971 179.366 130.896C173.462 132.742 167.805 135.712 162.713 139.84C141.095 157.353 137.77 189.073 155.28 210.687C166.969 225.112 184.978 231.39 202.093 228.769C207.714 227.906 213.231 226.085 218.406 223.279C221.087 221.829 223.674 220.108 226.13 218.114C226.835 217.542 227.522 216.953 228.188 216.354C229.842 214.864 231.371 213.286 232.782 211.636C234.913 209.14 236.767 206.477 238.333 203.677C239.743 201.166 240.926 198.558 241.874 195.873C247.553 179.889 245.021 161.412 233.56 147.267ZM227.422 192.183C226.015 195.706 224.033 199.038 221.485 202.02C220.096 203.662 218.527 205.191 216.797 206.595C215.062 208.003 213.238 209.219 211.344 210.24C196.587 218.254 177.755 214.873 166.802 201.354C154.441 186.1 156.788 163.719 172.042 151.359C187.297 139.001 209.678 141.348 222.038 156.603C223.847 158.831 225.337 161.214 226.519 163.698C230.833 172.745 231.046 183.108 227.422 192.183Z" fill="#AAAAAA"/>
<path d="M194.458 230.261C188.286 230.261 182.13 229.155 176.33 226.975C167.839 223.783 160.312 218.351 154.57 211.264C136.771 189.291 140.163 156.934 162.136 139.134C167.21 135.024 172.913 131.96 179.094 130.03C195.358 124.944 213.011 128.227 226.32 138.812C228.746 140.739 231.011 142.907 233.057 145.257C233.482 145.74 233.89 146.227 234.27 146.698C239.9 153.647 243.624 161.959 245.043 170.738C246.42 179.253 245.621 188.051 242.733 196.183C241.766 198.916 240.553 201.591 239.124 204.13C237.519 206.993 235.616 209.72 233.47 212.234C232.014 213.94 230.439 215.557 228.794 217.037C228.126 217.642 227.42 218.244 226.7 218.831C224.234 220.828 221.59 222.598 218.835 224.087C213.649 226.902 208.062 228.784 202.228 229.678C199.65 230.073 197.051 230.267 194.455 230.267L194.458 230.261ZM194.449 129.501C189.493 129.501 184.502 130.245 179.638 131.768C173.679 133.632 168.177 136.587 163.286 140.551C142.094 157.718 138.82 188.926 155.986 210.115C167.01 223.719 184.626 230.523 201.954 227.869C207.578 227.006 212.968 225.191 217.972 222.479C220.629 221.041 223.18 219.336 225.557 217.408C226.253 216.843 226.934 216.262 227.578 215.678C229.165 214.247 230.682 212.69 232.09 211.042C234.16 208.62 235.993 205.993 237.541 203.23C238.918 200.783 240.088 198.205 241.018 195.569C246.84 179.177 243.788 161.335 232.853 147.841C232.488 147.388 232.096 146.923 231.689 146.455C229.713 144.187 227.527 142.095 225.189 140.238C216.334 133.194 205.481 129.501 194.452 129.501H194.449Z" fill="#AAAAAA"/>
<path d="M194.452 215.448C183.749 215.448 173.227 210.726 166.098 201.926C159.967 194.359 157.149 184.859 158.164 175.174C159.179 165.488 163.906 156.779 171.473 150.647C187.093 137.994 210.096 140.405 222.752 156.025C224.567 158.265 226.114 160.712 227.348 163.302C231.705 172.435 232.042 183.084 228.275 192.52C226.801 196.213 224.752 199.606 222.186 202.61C220.764 204.291 219.143 205.868 217.377 207.3C215.617 208.729 213.732 209.988 211.78 211.04C206.305 214.013 200.35 215.448 194.452 215.448ZM194.388 144.357C186.728 144.357 179.021 146.877 172.619 152.064C165.429 157.888 160.942 166.163 159.976 175.362C159.012 184.561 161.687 193.587 167.512 200.776C178.018 213.745 196.27 217.387 210.908 209.437C212.762 208.437 214.55 207.243 216.222 205.884C217.9 204.522 219.438 203.023 220.791 201.427C223.229 198.572 225.175 195.35 226.576 191.842C230.154 182.88 229.835 172.763 225.697 164.087C224.527 161.627 223.056 159.302 221.332 157.174C214.498 148.738 204.481 144.357 194.385 144.357H194.388Z" fill="#AAAAAA"/>
<path opacity="0.25" d="M227.426 192.182C226.018 195.706 224.036 199.038 221.489 202.02C220.099 203.662 218.531 205.191 216.801 206.595C215.065 208.003 213.241 209.219 211.347 210.24C196.591 218.254 177.758 214.873 166.805 201.354C154.445 186.099 156.791 163.719 172.046 151.358C187.301 139.001 209.681 141.348 222.042 156.602C223.851 158.831 225.34 161.214 226.523 163.698C230.837 172.745 231.049 183.108 227.426 192.182Z" fill="#AAAAAA"/>
<path d="M243.076 224.34L228.809 235.898L228.703 235.989L222.276 228.055L218.406 223.279C221.088 221.829 223.675 220.108 226.131 218.114C226.836 217.542 227.523 216.953 228.189 216.354C229.843 214.864 231.372 213.286 232.782 211.636L241.528 222.428L243.079 224.343L243.076 224.34Z" fill="#AAAAAA"/>
<path opacity="0.75" d="M272.306 260.191L257.711 272.016C255.981 273.421 253.436 273.156 252.029 271.42L228.806 242.756L227.995 241.753C226.59 240.017 226.858 237.476 228.59 236.071L228.7 235.983L228.806 235.895L243.073 224.334L243.182 224.243C244.912 222.838 247.46 223.103 248.864 224.838L272.898 254.503C274.306 256.239 274.035 258.78 272.303 260.184L272.306 260.191Z" fill="#AAAAAA"/>
<path d="M255.175 273.828C253.731 273.828 252.302 273.201 251.323 271.998L227.289 242.33C225.571 240.208 225.899 237.083 228.018 235.366L228.234 235.192L242.61 223.543C243.641 222.707 244.933 222.324 246.249 222.464C247.565 222.604 248.748 223.245 249.578 224.273L273.612 253.937C274.445 254.964 274.828 256.256 274.688 257.573C274.548 258.889 273.907 260.069 272.883 260.902L258.288 272.727C257.372 273.469 256.272 273.831 255.175 273.831V273.828ZM245.726 224.26C245.012 224.26 244.325 224.504 243.762 224.96L243.656 225.048L229.158 236.791C227.83 237.867 227.623 239.843 228.708 241.184L252.743 270.848C253.828 272.186 255.804 272.396 257.141 271.307L271.736 259.482C272.384 258.956 272.791 258.208 272.876 257.378C272.965 256.548 272.721 255.734 272.196 255.083L248.161 225.419C247.635 224.771 246.891 224.364 246.058 224.279C245.945 224.266 245.836 224.26 245.723 224.26H245.726Z" fill="#AAAAAA"/>
<path d="M208.624 195.654C208.432 195.708 208.241 195.733 208.049 195.733C207.104 195.733 206.241 195.106 205.97 194.149C205.906 193.921 204.037 188.084 194.692 188.084C185.347 188.084 182.927 194.049 182.83 194.301C182.422 195.407 181.191 195.991 180.081 195.596C178.966 195.201 178.373 193.991 178.762 192.872C178.871 192.553 181.203 186.102 189.822 184.26C191.262 183.947 192.88 183.77 194.692 183.77C196.503 183.77 198.121 183.953 199.55 184.26C208.128 186.126 210.041 192.677 210.135 193.003C210.448 194.152 209.776 195.34 208.627 195.654H208.624ZM214.242 168.278C214.242 171.695 211.469 174.468 208.052 174.468C204.635 174.468 201.857 171.695 201.857 168.278C201.857 164.861 204.629 162.086 208.052 162.086C211.475 162.086 214.242 164.855 214.242 168.278ZM186.994 168.278C186.994 171.695 184.222 174.468 180.799 174.468C177.376 174.468 174.609 171.695 174.609 168.278C174.609 164.861 177.382 162.086 180.799 162.086C184.216 162.086 186.994 164.855 186.994 168.278Z" fill="#AAAAAA"/>
<path d="M65.9005 183.81C65.6907 183.81 65.4809 183.74 65.3107 183.594C65.2225 183.518 63.0915 181.703 59.9573 178.466C59.6077 178.104 59.6168 177.526 59.9785 177.177C60.3403 176.827 60.9179 176.836 61.2675 177.198C64.3318 180.366 66.4689 182.186 66.4902 182.205C66.8733 182.53 66.9219 183.108 66.5936 183.491C66.4142 183.703 66.1558 183.813 65.8974 183.813L65.9005 183.81ZM55.7043 173.331C55.4459 173.331 55.1905 173.222 55.0081 173.009C53.403 171.121 51.8587 169.181 50.4208 167.245C50.1198 166.841 50.2049 166.269 50.6093 165.968C51.0136 165.667 51.5851 165.752 51.8861 166.157C53.2997 168.06 54.8166 169.969 56.3974 171.823C56.7227 172.206 56.6771 172.784 56.2941 173.109C56.1238 173.255 55.911 173.325 55.7043 173.325V173.331ZM47.019 161.6C46.7181 161.6 46.4201 161.451 46.2469 161.174C44.9032 159.049 43.6629 156.9 42.5624 154.781C42.3313 154.334 42.5046 153.784 42.9515 153.553C43.3984 153.322 43.9486 153.495 44.1797 153.942C45.2558 156.015 46.4688 158.119 47.7851 160.198C48.0557 160.624 47.928 161.186 47.5024 161.457C47.3504 161.554 47.1832 161.6 47.016 161.6H47.019ZM40.3341 148.64C39.9723 148.64 39.6288 148.421 39.4859 148.062C38.5526 145.713 37.7744 143.347 37.1664 141.037C37.0387 140.551 37.3305 140.052 37.8169 139.924C38.3033 139.797 38.8019 140.089 38.9296 140.575C39.5193 142.815 40.2763 145.108 41.1822 147.391C41.3677 147.859 41.1397 148.388 40.6715 148.573C40.5621 148.616 40.4465 148.637 40.3371 148.637L40.3341 148.64ZM36.683 134.559C36.227 134.559 35.8318 134.215 35.7771 133.753C35.5673 131.947 35.4609 130.136 35.4609 128.369C35.4609 128.211 35.4609 128.053 35.4609 127.892C35.467 127.369 35.4853 126.837 35.5157 126.314C35.5461 125.813 35.9777 125.427 36.4793 125.457C36.9809 125.487 37.367 125.919 37.3366 126.421C37.3062 126.916 37.291 127.418 37.2849 127.91C37.2849 128.062 37.2849 128.214 37.2849 128.369C37.2849 130.069 37.3883 131.808 37.5889 133.543C37.6467 134.045 37.288 134.495 36.7894 134.556C36.7529 134.559 36.7195 134.562 36.683 134.562V134.559ZM37.6893 120.107C37.6041 120.107 37.516 120.094 37.4309 120.07C36.9475 119.927 36.6709 119.42 36.8137 118.936C37.516 116.553 38.4918 114.233 39.7139 112.038C39.9601 111.598 40.5134 111.44 40.9542 111.686C41.395 111.932 41.5531 112.485 41.3069 112.926C40.1517 115.002 39.2275 117.197 38.5617 119.453C38.4432 119.851 38.0814 120.107 37.6862 120.107H37.6893ZM69.6883 113.048C69.2809 113.048 68.8857 113.011 68.5118 112.935C67.2381 112.68 66.0464 111.987 65.0645 110.929C64.7209 110.558 64.7453 109.983 65.1131 109.64C65.484 109.296 66.0585 109.321 66.4021 109.689C67.1286 110.473 67.9585 110.965 68.8675 111.145C69.1229 111.196 69.3995 111.221 69.6853 111.221C70.4179 111.221 71.2326 111.057 72.1112 110.737C72.5854 110.564 73.1083 110.807 73.2816 111.278C73.4549 111.753 73.2117 112.276 72.7405 112.449C71.6613 112.844 70.6337 113.045 69.6883 113.045V113.048ZM78.3827 108.394C78.1608 108.394 77.9389 108.311 77.7625 108.15C77.3947 107.807 77.3734 107.229 77.7139 106.861C79.5105 104.925 80.5837 102.803 80.6566 101.037C80.6779 100.532 81.1005 100.146 81.6051 100.164C82.1097 100.186 82.4989 100.611 82.4776 101.113C82.3864 103.338 81.1673 105.819 79.0485 108.102C78.8691 108.296 78.6259 108.394 78.3797 108.394H78.3827ZM44.7177 107.451C44.5019 107.451 44.2891 107.375 44.1158 107.223C43.7389 106.889 43.7024 106.314 44.0368 105.937C45.6358 104.128 47.4294 102.478 49.3659 101.034L49.5574 100.894C49.9617 100.596 50.5333 100.684 50.8312 101.091C51.1291 101.499 51.0409 102.067 50.6336 102.365L50.4542 102.499C48.6181 103.867 46.9187 105.433 45.4017 107.147C45.2224 107.351 44.9701 107.454 44.7177 107.454V107.451ZM63.3013 104.502C62.8118 104.502 62.4075 104.113 62.3893 103.621C62.3832 103.469 62.3832 103.317 62.3832 103.168C62.3832 100.699 63.0733 98.3524 64.4382 96.194C64.7057 95.7684 65.2712 95.6407 65.6968 95.9082C66.1224 96.1757 66.2501 96.7412 65.9825 97.1668C64.8061 99.0303 64.2102 101.049 64.2102 103.168C64.2102 103.298 64.2102 103.429 64.2163 103.56C64.2345 104.065 63.8393 104.484 63.3347 104.502C63.3256 104.502 63.3134 104.502 63.3043 104.502H63.3013ZM159.548 102.797C157.335 102.797 155.137 102.712 153.015 102.548C152.513 102.508 152.136 102.07 152.176 101.569C152.215 101.067 152.647 100.69 153.155 100.73C155.489 100.912 157.915 100.991 160.362 100.97H160.371C160.87 100.97 161.277 101.374 161.283 101.873C161.287 102.377 160.882 102.788 160.381 102.794C160.104 102.794 159.824 102.797 159.548 102.797ZM167.655 102.438C167.187 102.438 166.789 102.079 166.746 101.605C166.704 101.104 167.075 100.663 167.576 100.617C169.929 100.414 172.346 100.119 174.754 99.7386C175.252 99.6626 175.717 100 175.796 100.499C175.876 100.997 175.535 101.462 175.036 101.541C172.586 101.927 170.13 102.228 167.731 102.435C167.704 102.435 167.677 102.438 167.652 102.438H167.655ZM145.852 101.626C145.798 101.626 145.746 101.62 145.691 101.611C144.5 101.395 143.314 101.149 142.162 100.879C140.964 100.596 139.73 100.252 138.496 99.8633C138.015 99.7113 137.748 99.2005 137.9 98.7202C138.052 98.2399 138.563 97.9724 139.043 98.1244C140.235 98.5014 141.426 98.8297 142.581 99.1033C143.7 99.3678 144.855 99.6079 146.014 99.8177C146.509 99.9058 146.837 100.38 146.749 100.876C146.67 101.316 146.287 101.626 145.852 101.626ZM182.065 100.186C181.648 100.186 181.271 99.8967 181.177 99.4742C181.068 98.9817 181.378 98.4953 181.867 98.3858C184.199 97.863 186.558 97.258 188.881 96.5862C189.364 96.4463 189.872 96.726 190.011 97.2093C190.151 97.6927 189.872 98.1973 189.388 98.3402C187.029 99.0242 184.634 99.6383 182.266 100.167C182.199 100.182 182.132 100.189 182.065 100.189V100.186ZM56.3822 98.8449C56.0417 98.8449 55.7134 98.6534 55.5584 98.325C55.3425 97.869 55.5341 97.3249 55.9901 97.109C58.3005 96.0086 60.6473 95.1269 62.9608 94.4855C63.4472 94.3517 63.9488 94.6345 64.0825 95.1209C64.2163 95.6073 63.9336 96.1089 63.4472 96.2426C61.2341 96.8567 58.9905 97.7018 56.7713 98.7537C56.6437 98.8145 56.5129 98.8418 56.3792 98.8418L56.3822 98.8449ZM131.954 97.3157C131.832 97.3157 131.707 97.2914 131.589 97.2397C129.211 96.2031 126.901 95.0753 124.952 94.1086C124.503 93.8836 124.317 93.3364 124.542 92.8865C124.767 92.4365 125.314 92.2511 125.764 92.4761C127.691 93.4337 129.978 94.5494 132.318 95.5708C132.78 95.7714 132.99 96.3095 132.79 96.7716C132.641 97.1151 132.306 97.3188 131.954 97.3188V97.3157ZM77.4981 96.5071C77.3673 96.5071 77.2366 96.4798 77.1089 96.419C75.3214 95.5769 73.1934 95.1482 70.7827 95.1482C70.6581 95.1482 70.5334 95.1482 70.4088 95.1513C69.8981 95.1665 69.4907 94.7591 69.4816 94.2575C69.4725 93.7559 69.8737 93.3394 70.3753 93.3303C70.5121 93.3303 70.6489 93.3273 70.7827 93.3273C73.464 93.3273 75.8534 93.8137 77.8841 94.7713C78.3401 94.9871 78.5347 95.5313 78.3189 95.9842C78.1638 96.3125 77.8355 96.5071 77.495 96.5071H77.4981ZM196.079 96.1332C195.705 96.1332 195.353 95.8991 195.219 95.5252C195.052 95.051 195.298 94.5281 195.772 94.3609C198.049 93.5522 200.32 92.6676 202.518 91.7313C202.98 91.5337 203.518 91.7495 203.716 92.2146C203.913 92.6767 203.698 93.2148 203.232 93.4093C200.998 94.3609 198.694 95.2577 196.383 96.0785C196.283 96.1149 196.18 96.1302 196.079 96.1302V96.1332ZM70.3054 92.4335C70.0197 92.4335 69.74 92.2998 69.5606 92.0474C69.2688 91.637 69.3661 91.0685 69.7765 90.7767C71.6369 89.4573 73.844 88.2474 76.3337 87.1804C76.7958 86.9828 77.3339 87.1956 77.5315 87.6607C77.7291 88.1228 77.5163 88.6609 77.0512 88.8585C74.6769 89.8769 72.5854 91.023 70.8283 92.2663C70.6672 92.3788 70.4848 92.4335 70.3024 92.4335H70.3054ZM118.821 90.9591C118.687 90.9591 118.553 90.9287 118.426 90.8679C115.878 89.6398 113.78 88.7065 111.823 87.9373C111.355 87.7519 111.123 87.223 111.309 86.7548C111.494 86.2866 112.023 86.0556 112.492 86.241C114.492 87.0284 116.629 87.9769 119.219 89.2263C119.672 89.4452 119.864 89.9893 119.645 90.4453C119.487 90.7706 119.161 90.9622 118.824 90.9622L118.821 90.9591ZM209.498 90.415C209.163 90.415 208.841 90.2325 208.683 89.9133C208.458 89.4634 208.638 88.9162 209.087 88.6882C211.273 87.5908 213.407 86.4234 215.435 85.2226C215.87 84.9642 216.426 85.1071 216.684 85.5418C216.943 85.9766 216.8 86.5359 216.365 86.7913C214.301 88.0134 212.127 89.202 209.905 90.3177C209.775 90.3846 209.635 90.415 209.495 90.415H209.498ZM83.5933 86.5481C83.192 86.5481 82.8241 86.2805 82.7147 85.8762C82.5809 85.3898 82.8697 84.8882 83.3531 84.7575C85.7577 84.1009 88.2688 83.578 90.6126 83.2466C91.1112 83.1737 91.5733 83.5233 91.6432 84.0218C91.7131 84.5204 91.3665 84.9825 90.868 85.0524C88.5971 85.3746 86.1651 85.8823 83.8334 86.5177C83.7544 86.539 83.6723 86.5511 83.5933 86.5511V86.5481ZM105.22 85.7698C105.15 85.7698 105.077 85.7607 105.004 85.7455C102.599 85.1649 100.298 84.8244 97.9664 84.7089C97.4648 84.6845 97.0757 84.2559 97.103 83.7513C97.1273 83.2497 97.5529 82.8636 98.0606 82.8879C100.505 83.0126 102.919 83.3682 105.433 83.9732C105.922 84.0918 106.223 84.5842 106.104 85.0737C106.004 85.4902 105.63 85.7729 105.22 85.7729V85.7698ZM222.007 82.9305C221.725 82.9305 221.448 82.7998 221.269 82.5566C220.971 82.1492 221.062 81.5777 221.469 81.2828C223.521 79.7871 225.367 78.2397 226.957 76.6863C227.315 76.3337 227.893 76.3398 228.246 76.6985C228.598 77.0572 228.592 77.6348 228.233 77.9874C226.583 79.6047 224.667 81.2098 222.546 82.7572C222.384 82.8758 222.196 82.9335 222.011 82.9335L222.007 82.9305ZM232.267 72.6644C232.094 72.6644 231.918 72.6158 231.763 72.5124C231.343 72.2327 231.228 71.6673 231.507 71.2477C232.112 70.3388 232.66 69.4025 233.134 68.4631C233.362 68.0132 233.912 67.8338 234.359 68.0618C234.809 68.2898 234.988 68.837 234.76 69.287C234.253 70.2902 233.669 71.2873 233.027 72.257C232.851 72.5215 232.562 72.6644 232.267 72.6644Z" fill="#AAAAAA"/>
<path d="M245.258 52.1019C244.228 52.2204 243.13 52.5883 242.048 53.178C240.899 52.95 239.64 52.8284 238.312 52.8345C236.418 52.8436 234.652 53.1172 233.174 53.5793C231.086 51.2689 230.216 48.8673 231.183 47.4233C232.572 45.3409 237.251 46.0219 241.628 48.9433C243.072 49.91 244.307 51.0014 245.258 52.0988V52.1019Z" fill="#AAAAAA"/>
<path d="M247.522 64.2315C244.203 68.3142 239.393 69.9011 236.785 67.7792C235.232 66.5146 234.812 64.2163 235.429 61.7023C236.35 61.8421 237.338 61.912 238.363 61.909C243.628 61.8786 247.887 59.8266 247.875 57.3216C247.872 56.8018 247.69 56.3063 247.352 55.8472C246.464 54.6343 244.525 53.6675 242.053 53.1781C243.136 52.5853 244.233 52.2205 245.264 52.1019H245.267C246.629 51.9469 247.869 52.2235 248.82 52.9987C251.429 55.1206 250.848 60.1488 247.522 64.2346V64.2315Z" fill="#AAAAAA"/>
<path opacity="0.5" d="M247.872 57.3244C247.884 59.8294 243.625 61.8844 238.359 61.9118C237.338 61.9148 236.347 61.8449 235.426 61.7051C231.589 61.1396 228.814 59.4403 228.805 57.4217C228.796 55.8166 230.538 54.3999 233.173 53.5822C234.651 53.1231 236.417 52.8465 238.311 52.8374C239.636 52.8283 240.898 52.9529 242.047 53.1809C244.518 53.6703 246.458 54.6371 247.346 55.85C247.683 56.3091 247.866 56.8046 247.869 57.3244H247.872Z" fill="#AAAAAA"/>
<path d="M238.28 62.8238C237.253 62.8238 236.249 62.7508 235.295 62.6049C230.814 61.9422 227.911 59.9084 227.898 57.4217C227.889 55.4488 229.762 53.6856 232.908 52.7067C234.529 52.202 236.398 51.9315 238.314 51.9224C239.675 51.9132 240.986 52.0348 242.229 52.2811C244.977 52.8252 247.057 53.9014 248.087 55.3059C248.546 55.9321 248.78 56.607 248.786 57.3123C248.802 60.4192 244.324 62.7873 238.368 62.8208C238.338 62.8208 238.31 62.8208 238.28 62.8208V62.8238ZM238.447 53.7464C238.405 53.7464 238.365 53.7464 238.323 53.7464C236.584 53.7555 234.9 53.9956 233.45 54.4486C231.179 55.1539 229.716 56.3182 229.722 57.4126C229.729 58.8779 232.185 60.3006 235.565 60.7992C236.459 60.9329 237.402 61.0028 238.362 60.9967C243.442 60.9694 246.971 59.039 246.965 57.3244C246.965 57.0052 246.85 56.6982 246.619 56.3851C245.88 55.3788 244.111 54.5124 241.879 54.0686C240.791 53.8528 239.639 53.7433 238.45 53.7433L238.447 53.7464Z" fill="#AAAAAA"/>
<path opacity="0.25" d="M81.3519 239.218L81.3793 239.367L81.3519 239.215L80.6953 235.765L81.3519 239.218Z" fill="#AAAAAA"/>
<path opacity="0.25" d="M125.433 246.459L95.7719 252.098C94.179 252.402 92.5982 252.369 91.1055 252.05C92.5982 252.369 94.1759 252.405 95.7689 252.101L125.433 246.462V246.459ZM48.9559 69.2241H49.2843C49.3572 64.4908 52.2908 60.2257 56.7019 58.4838L58.5806 47.0321C59.6324 40.6177 65.6851 36.2796 72.0934 37.3314L122.916 45.6793L198.609 31.291C204.993 30.078 211.146 34.2702 212.359 40.6511L215.329 56.2737C219.913 57.7602 223.279 61.9463 223.44 66.9988L223.51 69.2241H255.031C263.197 69.2241 270.59 66.1354 275.944 61.1438C281.294 56.1521 284.605 49.2513 284.605 41.633C284.605 26.3935 271.365 14.042 255.031 14.042H48.9559C40.7905 14.042 33.3942 17.1306 28.0438 22.1223C22.6934 27.114 19.3828 34.0148 19.3828 41.633C19.3828 56.8726 32.622 69.2241 48.9559 69.2241ZM233.174 53.5802C231.085 51.2698 230.216 48.8682 231.183 47.4242C232.572 45.3418 237.251 46.0228 241.628 48.9442C243.072 49.9109 244.306 51.0023 245.258 52.0998H245.261C246.623 51.9447 247.863 52.2214 248.815 52.9966C251.423 55.1185 250.842 60.1466 247.517 64.2324C244.197 68.3151 239.388 69.902 236.779 67.7801C235.226 66.5154 234.806 64.2172 235.423 61.7031C231.587 61.1377 228.811 59.4383 228.802 57.4198C228.793 55.8146 230.535 54.398 233.171 53.5802H233.174ZM164.64 138.345C163.987 138.825 163.342 139.323 162.704 139.837C163.339 139.32 163.987 138.825 164.64 138.345Z" fill="#AAAAAA"/>
<path opacity="0.25" d="M256.961 234.831L272.902 254.509C274.31 256.245 274.039 258.787 272.306 260.191L257.711 272.017C255.982 273.421 253.437 273.157 252.03 271.421L228.807 242.757C227.913 248.192 223.238 252.43 217.471 252.637L188.889 253.655C186.493 255.26 183.511 255.993 180.444 255.491L172.777 254.233L74.1137 257.753C67.5685 257.987 62.0965 252.932 61.8898 246.459L61.5585 235.962L54.2898 234.768H48.9637C40.7983 234.768 33.402 237.856 28.0516 242.848C22.7012 247.84 19.3906 254.74 19.3906 262.359C19.3906 277.601 32.6298 289.953 48.9637 289.953H255.048C263.214 289.953 270.607 286.864 275.961 281.872C281.311 276.878 284.621 269.977 284.621 262.359C284.621 247.721 272.404 235.746 256.964 234.825L256.961 234.831Z" fill="#AAAAAA"/>
<path opacity="0.25" d="M216.374 61.7606L215.961 59.584L216.374 61.7576L217.794 69.2269L216.374 61.7606Z" fill="#AAAAAA"/>
<path opacity="0.25" d="M255.041 124.406H228.289L232.366 145.85C232.77 146.312 233.168 146.784 233.554 147.264C241.258 156.773 244.921 168.237 244.775 179.588H255.041C263.207 179.588 270.6 176.5 275.953 171.508C281.304 166.516 284.614 159.616 284.614 151.997C284.614 136.758 271.375 124.406 255.041 124.406Z" fill="#AAAAAA"/>
<path opacity="0.25" d="M232.702 232.742L228.805 235.898V235.901L232.702 232.742Z" fill="#AAAAAA"/>
<path opacity="0.25" d="M37.1881 177.318L45.8521 124.559C38.927 125.233 32.7102 128.137 28.0438 132.487C22.6934 137.479 19.3828 144.379 19.3828 151.998C19.3828 163.334 26.7092 173.071 37.1851 177.315L37.1881 177.318Z" fill="#AAAAAA"/>
</svg>
