<svg width="24" height="24" viewBox="0 0 24 24" fill="none" xmlns="http://www.w3.org/2000/svg">
<g clip-path="url(#clip0_462_5224)">
<mask id="mask0_462_5224" style="mask-type:luminance" maskUnits="userSpaceOnUse" x="0" y="0" width="24" height="24">
<path d="M24 0H0V24H24V0Z" fill="white"/>
</mask>
<g mask="url(#mask0_462_5224)">
<path d="M12.0002 24C18.6276 24 24.0002 18.6274 24.0002 12C24.0002 5.37258 18.6276 0 12.0002 0C5.37283 0 0.000244141 5.37258 0.000244141 12C0.000244141 18.6274 5.37283 24 12.0002 24Z" fill="#F0F0F0"/>
<path d="M2.48062 4.69436C1.53802 5.92075 0.82725 7.33428 0.413391 8.86986H6.65611L2.48062 4.69436ZM23.5866 8.86986C23.1727 7.33434 22.4619 5.92083 21.5194 4.69443L17.344 8.86986H23.5866ZM0.413391 15.1307C0.827298 16.6663 1.53806 18.0797 2.48063 19.3061L6.65599 15.1307H0.413391ZM19.3059 2.48086C18.0795 1.53825 16.666 0.82748 15.1304 0.413574V6.65622L19.3059 2.48086ZM4.69418 21.5195C5.92057 22.4621 7.33411 23.1729 8.86963 23.5868V17.3441L4.69418 21.5195ZM8.86957 0.413574C7.33405 0.82748 5.92052 1.53825 4.69418 2.48081L8.86957 6.65622V0.413574ZM15.1304 23.5868C16.6659 23.1729 18.0795 22.4621 19.3058 21.5195L15.1304 17.3441V23.5868ZM17.344 15.1307L21.5194 19.3061C22.4619 18.0798 23.1727 16.6663 23.5866 15.1307H17.344Z" fill="#0052B4"/>
<path d="M23.8987 10.4348H13.5656L13.5655 0.101578C13.0531 0.034875 12.5307 0 12.0002 0C11.4696 0 10.9474 0.034875 10.4351 0.101578V10.4347L0.101822 10.4348C0.0351192 10.9471 0.000244141 11.4695 0.000244141 12C0.000244141 12.5306 0.0351192 13.0529 0.101822 13.5652H10.4349L10.435 23.8984C10.9474 23.9651 11.4696 24 12.0002 24C12.5307 24 13.0531 23.9652 13.5654 23.8984V13.5653L23.8987 13.5652C23.9654 13.0529 24.0002 12.5306 24.0002 12C24.0002 11.4695 23.9654 10.9471 23.8987 10.4348Z" fill="#D80027"/>
<path d="M15.1304 15.1307L20.4853 20.4855C20.7316 20.2393 20.9665 19.9819 21.1906 19.7151L16.6061 15.1306L15.1304 15.1307ZM8.86962 15.1306L3.51474 20.4854C3.76093 20.7317 4.01832 20.9667 4.28513 21.1908L8.86962 16.6062V15.1306ZM8.86962 8.86977L3.5148 3.51482C3.26851 3.76101 3.03358 4.0184 2.80942 4.28521L7.39392 8.86971L8.86962 8.86977ZM15.1304 8.86983L20.4853 3.5149C20.2391 3.26862 19.9817 3.03368 19.7149 2.80957L15.1304 7.39407V8.86983Z" fill="#D80027"/>
<path opacity="0.25" d="M19.6112 4.14943C21.3623 7.19155 17.7832 10.6104 13.1881 13.2554C8.59308 15.9004 3.055 17.1621 2.05419 14.3812C0.865581 11.0785 2.39343 5.34111 6.9885 2.6961C11.5835 0.0510901 17.8601 1.10733 19.6112 4.14943Z" fill="white"/>
</g>
</g>
<defs>
<clipPath id="clip0_462_5224">
<rect width="24" height="24" fill="white"/>
</clipPath>
</defs>
</svg>
