<svg width="33" height="33" viewBox="0 0 33 33" fill="none" xmlns="http://www.w3.org/2000/svg">
<path d="M28.6199 9.80677C27.4866 8.55344 25.5932 7.92677 22.8466 7.92677H22.5266V7.87344C22.5266 5.63344 22.5266 2.86011 17.5132 2.86011L15.4866 2.86011C10.4732 2.86011 10.4732 5.64677 10.4732 7.87344V7.94011H10.1532C7.39322 7.94011 5.51322 8.56677 4.37989 9.82011C3.05989 11.2868 3.09989 13.2601 3.23322 14.6068L3.24655 14.7001L3.35734 15.8634C3.37161 16.0132 3.45244 16.1485 3.5782 16.2311C3.88519 16.4327 4.47584 16.8156 4.81989 17.0068C5.00655 17.1268 5.20655 17.2334 5.40655 17.3401C7.68655 18.5934 10.1932 19.4334 12.7399 19.8468C12.8599 21.1001 13.4066 22.5668 16.3266 22.5668C19.2466 22.5668 19.8199 21.1134 19.9132 19.8201C22.6332 19.3801 25.2599 18.4334 27.6332 17.0468C27.7132 17.0068 27.7666 16.9668 27.8332 16.9268C28.3831 16.616 28.9543 16.2302 29.4702 15.8559C29.583 15.774 29.6553 15.648 29.6707 15.5095L29.6999 15.2468L29.7666 14.6201C29.7799 14.5401 29.7799 14.4734 29.7932 14.3801C29.8999 13.0334 29.8732 11.1934 28.6199 9.80677ZM17.9532 18.9401C17.9532 20.3534 17.9532 20.5668 16.3132 20.5668C14.6732 20.5668 14.6732 20.3134 14.6732 18.9534V17.2734H17.9532V18.9401ZM12.3799 7.92677V7.87344C12.3799 5.60677 12.3799 4.76677 15.4866 4.76677H17.5132C20.6199 4.76677 20.6199 5.62011 20.6199 7.87344V7.94011L12.3799 7.94011V7.92677Z" fill="#DF6235"/>
<path d="M28.6029 18.6825C28.9559 18.5131 29.3611 18.7939 29.3257 19.1839L28.8201 24.7534C28.5401 27.42 27.4468 30.14 21.5801 30.14L11.4201 30.14C5.55345 30.14 4.46012 27.42 4.18012 24.7667L3.69941 19.4789C3.66436 19.0934 4.06105 18.8132 4.41317 18.9739C5.87082 19.639 8.99371 21.0169 10.8226 21.478C10.9873 21.5195 11.1213 21.6372 11.1901 21.7924C11.9819 23.5765 13.7523 24.5267 16.3268 24.5267C18.8758 24.5267 20.6695 23.5399 21.4633 21.7526C21.5323 21.5973 21.6667 21.4795 21.8316 21.4379C23.7712 20.9474 27.084 19.4116 28.6029 18.6825Z" fill="#DF6235"/>
</svg>
