<svg width="17" height="17" viewBox="0 0 17 17" fill="none" xmlns="http://www.w3.org/2000/svg">
<path d="M12.4999 4.19221C12.0933 4.19221 11.7199 3.94767 11.5333 3.57038L11.0533 2.55728C10.7466 1.92148 9.94662 1.39746 9.26662 1.39746H7.73995C7.05328 1.39746 6.25328 1.92148 5.94662 2.55728L5.46662 3.57038C5.27995 3.94767 4.90662 4.19221 4.49995 4.19221C3.05328 4.19221 1.90662 5.4708 1.99995 6.97996L2.34662 12.7511C2.42662 14.1904 3.16662 15.3712 5.00662 15.3712H11.9933C13.8333 15.3712 14.5666 14.1904 14.6533 12.7511L14.9999 6.97996C15.0933 5.4708 13.9466 4.19221 12.4999 4.19221ZM7.49995 5.06556H9.49995C9.77328 5.06556 9.99995 5.30312 9.99995 5.58958C9.99995 5.87604 9.77328 6.11359 9.49995 6.11359H7.49995C7.22662 6.11359 6.99995 5.87604 6.99995 5.58958C6.99995 5.30312 7.22662 5.06556 7.49995 5.06556ZM8.49995 12.6603C7.25995 12.6603 6.24662 11.6053 6.24662 10.2987C6.24662 8.99218 7.25328 7.93716 8.49995 7.93716C9.74662 7.93716 10.7533 8.99218 10.7533 10.2987C10.7533 11.6053 9.73995 12.6603 8.49995 12.6603Z" fill="white"/>
</svg>
