<svg width="16" height="17" viewBox="0 0 16 17" fill="none" xmlns="http://www.w3.org/2000/svg">
<path fill-rule="evenodd" clip-rule="evenodd" d="M13.2562 3.51263C13.5816 3.83807 13.5816 4.36571 13.2562 4.69114L3.92283 14.0245C3.5974 14.3499 3.06976 14.3499 2.74432 14.0245C2.41888 13.699 2.41888 13.1714 2.74432 12.846L12.0777 3.51263C12.4031 3.1872 12.9307 3.1872 13.2562 3.51263Z" fill="#9EA5AE"/>
<path fill-rule="evenodd" clip-rule="evenodd" d="M2.74432 3.51263C3.06976 3.1872 3.5974 3.1872 3.92283 3.51263L13.2562 12.846C13.5816 13.1714 13.5816 13.699 13.2562 14.0245C12.9307 14.3499 12.4031 14.3499 12.0777 14.0245L2.74432 4.69114C2.41888 4.36571 2.41888 3.83807 2.74432 3.51263Z" fill="#9EA5AE"/>
</svg>
