<svg width="20" height="21" viewBox="0 0 20 21" fill="none" xmlns="http://www.w3.org/2000/svg">
<path d="M6.03317 2.52344H4.44984C2.62484 2.52344 1.6665 3.48177 1.6665 5.29844V6.88177C1.6665 8.69844 2.62484 9.65677 4.4415 9.65677H6.02484C7.8415 9.65677 8.79984 8.69844 8.79984 6.88177V5.29844C8.80817 3.48177 7.84984 2.52344 6.03317 2.52344Z" fill="white"/>
<path d="M15.5585 2.52344H13.9752C12.1585 2.52344 11.2002 3.48177 11.2002 5.29844V6.88177C11.2002 8.69844 12.1585 9.65677 13.9752 9.65677H15.5585C17.3752 9.65677 18.3335 8.69844 18.3335 6.88177V5.29844C18.3335 3.48177 17.3752 2.52344 15.5585 2.52344Z" fill="white"/>
<path d="M15.5585 12.0479H13.9752C12.1585 12.0479 11.2002 13.0062 11.2002 14.8229V16.4062C11.2002 18.2229 12.1585 19.1812 13.9752 19.1812H15.5585C17.3752 19.1812 18.3335 18.2229 18.3335 16.4062V14.8229C18.3335 13.0062 17.3752 12.0479 15.5585 12.0479Z" fill="white"/>
<path d="M6.03317 12.0479H4.44984C2.62484 12.0479 1.6665 13.0062 1.6665 14.8229V16.4062C1.6665 18.2312 2.62484 19.1895 4.4415 19.1895H6.02484C7.8415 19.1895 8.79984 18.2312 8.79984 16.4145V14.8312C8.80817 13.0062 7.84984 12.0479 6.03317 12.0479Z" fill="white"/>
</svg>
