<svg width="23" height="22" viewBox="0 0 23 22" fill="none" xmlns="http://www.w3.org/2000/svg">
<path d="M11.5 0.0185547C17.4371 0.0185547 22.25 4.83149 22.25 10.7686C22.25 16.7056 17.4371 21.5186 11.5 21.5186C5.56294 21.5186 0.75 16.7056 0.75 10.7686C0.75 4.83149 5.56294 0.0185547 11.5 0.0185547ZM11.5 8.76855C11.0052 8.76855 10.6412 9.00524 10.3955 9.21289C10.1789 9.39599 9.9505 9.64768 9.73047 9.8916L9.05957 10.6357L9.0459 10.6504C8.99732 10.7039 8.90081 10.8103 8.8291 10.917C8.76462 11.013 8.482 11.4525 8.71973 11.9873C8.9575 12.5219 9.47246 12.6066 9.58691 12.623C9.71434 12.6414 9.85842 12.6409 9.93066 12.6406H10.5V15.7686C10.5 16.3208 10.9477 16.7686 11.5 16.7686C12.0523 16.7686 12.5 16.3208 12.5 15.7686V12.6406H13.0693C13.1416 12.6409 13.2857 12.6414 13.4131 12.623C13.5275 12.6066 14.0425 12.5219 14.2803 11.9873C14.518 11.4525 14.2354 11.013 14.1709 10.917C14.0992 10.8103 14.0027 10.7039 13.9541 10.6504L13.9404 10.6357L13.2695 9.8916C13.0495 9.64768 12.8211 9.39599 12.6045 9.21289C12.3588 9.00524 11.9948 8.76855 11.5 8.76855ZM8.5 4.76855C7.94772 4.76855 7.5 5.21627 7.5 5.76855C7.5 6.32084 7.94772 6.76855 8.5 6.76855H14.5C15.0523 6.76855 15.5 6.32084 15.5 5.76855C15.5 5.21627 15.0523 4.76855 14.5 4.76855H8.5Z" fill="#DF6235"/>
</svg>
