<svg width="24" height="24" viewBox="0 0 24 24" fill="none" xmlns="http://www.w3.org/2000/svg">
<path d="M20.3235 14.8242C20.4182 14.7295 20.5813 14.7295 20.676 14.8242C20.7708 14.919 20.7708 15.082 20.676 15.1768L15.6741 20.1777C15.6075 20.2382 15.5384 20.2607 15.4895 20.2607C15.4251 20.2606 15.3649 20.2377 15.3137 20.1865C15.219 20.0918 15.219 19.9287 15.3137 19.834L20.3235 14.8242Z" fill="white" stroke="white"/>
<path d="M20.5 15.7402H3.5C3.09 15.7402 2.75 15.4002 2.75 14.9902C2.75 14.5802 3.09 14.2402 3.5 14.2402H20.5C20.91 14.2402 21.25 14.5802 21.25 14.9902C21.25 15.4002 20.91 15.7402 20.5 15.7402Z" fill="white"/>
<path d="M3.49994 9.76043C3.30994 9.76043 3.11994 9.69043 2.96994 9.54043C2.67994 9.25043 2.67994 8.77043 2.96994 8.48043L7.97994 3.47043C8.26994 3.18043 8.74994 3.18043 9.03994 3.47043C9.32994 3.76043 9.32994 4.24043 9.03994 4.53043L4.02994 9.54043C3.88994 9.68043 3.68994 9.76043 3.49994 9.76043Z" fill="white"/>
<path d="M20.5 9.75977H3.5C3.09 9.75977 2.75 9.41977 2.75 9.00977C2.75 8.59977 3.09 8.25977 3.5 8.25977H20.5C20.91 8.25977 21.25 8.59977 21.25 9.00977C21.25 9.41977 20.91 9.75977 20.5 9.75977Z" fill="white"/>
</svg>
