<svg width="24" height="24" viewBox="0 0 24 24" fill="none" xmlns="http://www.w3.org/2000/svg">
    <path d="M12.0001 2.74988C11.8101 2.74988 11.6201 2.81988 11.4701 2.96988L5.40012 9.03988C5.11012 9.32988 5.11012 9.80988 5.40012 10.0999C5.69012 10.3899 6.17012 10.3899 6.46012 10.0999L12.0001 4.55988L17.5401 10.0999C17.8301 10.3899 18.3101 10.3899 18.6001 10.0999C18.8901 9.80988 18.8901 9.32988 18.6001 9.03988L12.5301 2.96988C12.3801 2.81988 12.1901 2.74988 12.0001 2.74988Z" fill="currentColor"/>
    <path d="M12 2.92C11.59 2.92 11.25 3.26 11.25 3.67V20.5C11.25 20.91 11.59 21.25 12 21.25C12.41 21.25 12.75 20.91 12.75 20.5V3.67C12.75 3.26 12.41 2.92 12 2.92Z" fill="currentColor"/>
</svg>
