<svg width="83" height="83" viewBox="0 0 83 83" fill="none" xmlns="http://www.w3.org/2000/svg">
<path d="M75.1903 18.9222C76.649 22.6962 74.6035 25.2801 70.6443 27.8253C67.4498 29.8789 63.3798 32.1036 59.0673 35.9072C54.8398 39.6358 50.714 44.1268 47.0474 48.5471C43.3957 52.9494 40.292 57.1692 38.099 60.2937C36.6819 62.3127 34.7042 65.3244 34.7042 65.3244C33.3095 67.531 30.8022 68.8666 28.1136 68.833C25.4245 68.7995 22.9545 67.4028 21.6202 65.1612C18.2095 59.4312 15.5775 57.1683 14.3679 56.3554C11.1311 54.1803 7.33325 53.8586 7.33325 48.7899C7.33325 44.7645 10.7325 41.5013 14.9256 41.5013C17.886 41.6106 20.6377 42.7749 23.0757 44.4132C24.6342 45.4605 26.2851 46.8457 28.0023 48.669C30.0177 45.9201 32.4463 42.7486 35.1688 39.4665C39.1225 34.7 43.7893 29.5867 48.794 25.1726C53.7138 20.8334 59.4019 16.7717 65.4311 14.6242C69.3624 13.2239 73.7317 15.1482 75.1903 18.9222Z" fill="#DF6235"/>
</svg>
