<svg width="24" height="24" viewBox="0 0 24 24" fill="none" xmlns="http://www.w3.org/2000/svg">
    <path d="M6.90039 7.75H11.0996C12.9922 7.75 14.2482 8.17201 15.0381 8.96191C15.828 9.75182 16.25 11.0078 16.25 12.9004V17.0996C16.25 18.9922 15.828 20.2482 15.0381 21.0381C14.2482 21.828 12.9922 22.25 11.0996 22.25H6.90039C5.00783 22.25 3.75182 21.828 2.96191 21.0381C2.17201 20.2482 1.75 18.9922 1.75 17.0996V12.9004C1.75 11.0078 2.17201 9.75182 2.96191 8.96191C3.75182 8.17201 5.00783 7.75 6.90039 7.75ZM6.90039 8.25C5.32084 8.25 4.10618 8.51101 3.30859 9.30859C2.51101 10.1062 2.25 11.3208 2.25 12.9004V17.0996C2.25 18.6792 2.51101 19.8938 3.30859 20.6914C4.10618 21.489 5.32084 21.75 6.90039 21.75H11.0996C12.6792 21.75 13.8938 21.489 14.6914 20.6914C15.489 19.8938 15.75 18.6792 15.75 17.0996V12.9004C15.75 11.3208 15.489 10.1062 14.6914 9.30859C13.8938 8.51101 12.6792 8.25 11.0996 8.25H6.90039Z" fill="currentColor" stroke="currentColor"/>
    <path d="M17.1 16.75H16C15.59 16.75 15.25 16.41 15.25 16V12.9C15.25 9.8 14.2 8.75 11.1 8.75H8C7.59 8.75 7.25 8.41 7.25 8V6.9C7.25 2.99 8.99 1.25 12.9 1.25H17.1C21.01 1.25 22.75 2.99 22.75 6.9V11.1C22.75 15.01 21.01 16.75 17.1 16.75ZM16.75 15.25H17.1C20.2 15.25 21.25 14.2 21.25 11.1V6.9C21.25 3.8 20.2 2.75 17.1 2.75H12.9C9.8 2.75 8.75 3.8 8.75 6.9V7.25H11.1C15.01 7.25 16.75 8.99 16.75 12.9V15.25Z" fill="currentColor"/>
</svg>
