<svg width="24" height="24" viewBox="0 0 24 24" fill="none" xmlns="http://www.w3.org/2000/svg">
<path d="M15.8691 1.92676C16.7536 1.9018 17.7087 2.31238 18.7363 3.2832C19.7638 4.2539 20.2279 5.18401 20.2529 6.06836C20.2779 6.95285 19.8674 7.90881 18.8965 8.93652L10.6865 17.626L10.6846 17.6279C10.3394 17.9978 9.65911 18.3643 9.15918 18.4463H9.15625L5.96289 18.9922C5.76185 19.0049 5.67894 19.0195 5.54004 19.0195C5.04271 19.0195 4.60111 18.8487 4.29492 18.5576L4.29297 18.5557L4.15527 18.4082C3.85423 18.042 3.7014 17.5277 3.7666 16.9463L4.13672 13.707C4.16413 13.4682 4.25487 13.1648 4.39355 12.8662C4.53254 12.567 4.70306 12.3066 4.86719 12.1387L4.87305 12.1328L13.083 3.44336C14.0538 2.41572 14.9847 1.95173 15.8691 1.92676ZM15.9297 2.40918C14.9399 2.4093 14.1431 3.02885 13.4463 3.7666L5.23828 12.4648C5.08364 12.6272 4.94821 12.8613 4.85156 13.0684C4.75407 13.2773 4.66443 13.5262 4.63477 13.7412L4.63281 13.7529L4.26367 16.9893C4.21089 17.4247 4.30815 17.8722 4.63672 18.1826C4.96746 18.495 5.41501 18.5578 5.83496 18.4941L5.84375 18.4922L9.06445 17.9424C9.28586 17.9042 9.53323 17.7982 9.73535 17.6895C9.93777 17.5806 10.1605 17.4341 10.3125 17.2744L10.3135 17.2725L18.5234 8.58301L18.5244 8.58203C19.1594 7.90613 19.6907 7.1597 19.7432 6.29199C19.7972 5.39684 19.337 4.53186 18.3818 3.63477C17.538 2.82394 16.7311 2.40918 15.9297 2.40918Z" fill="#DF6235" stroke="#DF6235"/>
<path d="M17.3399 10.9498C17.3199 10.9498 17.2899 10.9498 17.2699 10.9498C14.1499 10.6398 11.6399 8.26985 11.1599 5.16985C11.0999 4.75985 11.3799 4.37985 11.7899 4.30985C12.1999 4.24985 12.5799 4.52985 12.6499 4.93985C13.0299 7.35985 14.9899 9.21985 17.4299 9.45985C17.8399 9.49985 18.1399 9.86985 18.0999 10.2798C18.0499 10.6598 17.7199 10.9498 17.3399 10.9498Z" fill="#DF6235"/>
<path d="M21 22.75H3C2.59 22.75 2.25 22.41 2.25 22C2.25 21.59 2.59 21.25 3 21.25H21C21.41 21.25 21.75 21.59 21.75 22C21.75 22.41 21.41 22.75 21 22.75Z" fill="#DF6235"/>
</svg>
