<svg width="25" height="24" viewBox="0 0 25 24" fill="none" xmlns="http://www.w3.org/2000/svg">
<path d="M7.93701 8.65918C8.07953 8.64849 8.20977 8.76261 8.22217 8.88867C8.2337 9.00685 8.1598 9.11738 8.04443 9.15234L7.99268 9.16211C6.35951 9.31313 5.12108 9.78475 4.31494 10.8057C3.52338 11.8083 3.23 13.2425 3.22998 15.1201V15.25C3.22998 17.3195 3.5908 18.8704 4.60498 19.8848C5.61932 20.8991 7.17023 21.2607 9.23975 21.2607H15.7603C17.8298 21.2607 19.3807 20.8991 20.395 19.8848C21.4092 18.8704 21.77 17.3194 21.77 15.25V15.1201C21.77 13.232 21.4714 11.7906 20.6646 10.7871C19.8441 9.76668 18.585 9.30256 16.9243 9.16211C16.7783 9.14564 16.686 9.01929 16.6978 8.89844C16.7109 8.76579 16.8046 8.67925 16.9146 8.66797H16.9673C18.8768 8.83109 20.1695 9.4195 20.9976 10.4199C21.8344 11.431 22.27 12.9502 22.27 15.1299V15.2607C22.27 17.6474 21.7558 19.2351 20.7534 20.2354C19.7507 21.2359 18.1576 21.75 15.7603 21.75H9.23975C6.84268 21.75 5.25022 21.2358 4.24756 20.2334C3.24488 19.2307 2.72998 17.6377 2.72998 15.2402V15.1104C2.72998 12.9449 3.15816 11.434 3.98193 10.4248C4.79521 9.42852 6.06355 8.83768 7.93701 8.65918Z" fill="white" stroke="white"/>
<path d="M12.5 15.7501C12.09 15.7501 11.75 15.4101 11.75 15.0001V3.62012C11.75 3.21012 12.09 2.87012 12.5 2.87012C12.91 2.87012 13.25 3.21012 13.25 3.62012V15.0001C13.25 15.4101 12.91 15.7501 12.5 15.7501Z" fill="white"/>
<path d="M15.8498 6.60043C15.6598 6.60043 15.4698 6.53043 15.3198 6.38043L12.4998 3.56043L9.67984 6.38043C9.38984 6.67043 8.90984 6.67043 8.61984 6.38043C8.32984 6.09043 8.32984 5.61043 8.61984 5.32043L11.9698 1.97043C12.2598 1.68043 12.7398 1.68043 13.0298 1.97043L16.3798 5.32043C16.6698 5.61043 16.6698 6.09043 16.3798 6.38043C16.2398 6.53043 16.0398 6.60043 15.8498 6.60043Z" fill="white"/>
</svg>
