<svg width="21" height="21" viewBox="0 0 21 21" fill="none" xmlns="http://www.w3.org/2000/svg">
<path d="M10.5 14.1083C8.50833 14.1083 6.89166 12.4916 6.89166 10.4999C6.89166 8.50827 8.50833 6.8916 10.5 6.8916C12.4917 6.8916 14.1083 8.50827 14.1083 10.4999C14.1083 12.4916 12.4917 14.1083 10.5 14.1083ZM10.5 8.1416C9.2 8.1416 8.14166 9.19993 8.14166 10.4999C8.14166 11.7999 9.2 12.8583 10.5 12.8583C11.8 12.8583 12.8583 11.7999 12.8583 10.4999C12.8583 9.19993 11.8 8.1416 10.5 8.1416Z" fill="#7C838C"/>
<path d="M10.5 18.0167C7.36666 18.0167 4.40833 16.1834 2.37499 13.0001C1.49166 11.6251 1.49166 9.3834 2.37499 8.00007C4.41666 4.81673 7.37499 2.9834 10.5 2.9834C13.625 2.9834 16.5833 4.81673 18.6167 8.00007C19.5 9.37507 19.5 11.6167 18.6167 13.0001C16.5833 16.1834 13.625 18.0167 10.5 18.0167ZM10.5 4.2334C7.80833 4.2334 5.23333 5.85007 3.43333 8.67507C2.80833 9.65007 2.80833 11.3501 3.43333 12.3251C5.23333 15.1501 7.80833 16.7667 10.5 16.7667C13.1917 16.7667 15.7667 15.1501 17.5667 12.3251C18.1917 11.3501 18.1917 9.65007 17.5667 8.67507C15.7667 5.85007 13.1917 4.2334 10.5 4.2334Z" fill="#7C838C"/>
</svg>
