<svg width="21" height="20" viewBox="0 0 21 20" fill="none" xmlns="http://www.w3.org/2000/svg">
<path d="M13 18.9584H8.00004C4.32504 18.9584 3.20837 17.8417 3.20837 14.1667V5.83342C3.20837 2.15841 4.32504 1.04175 8.00004 1.04175H13C16.675 1.04175 17.7917 2.15841 17.7917 5.83342V14.1667C17.7917 17.8417 16.675 18.9584 13 18.9584ZM8.00004 2.29175C5.01671 2.29175 4.45837 2.85841 4.45837 5.83342V14.1667C4.45837 17.1417 5.01671 17.7084 8.00004 17.7084H13C15.9834 17.7084 16.5417 17.1417 16.5417 14.1667V5.83342C16.5417 2.85841 15.9834 2.29175 13 2.29175H8.00004Z" fill="#DF6235"/>
<path d="M12.1667 5.20825H8.83337C8.49171 5.20825 8.20837 4.92492 8.20837 4.58325C8.20837 4.24159 8.49171 3.95825 8.83337 3.95825H12.1667C12.5084 3.95825 12.7917 4.24159 12.7917 4.58325C12.7917 4.92492 12.5084 5.20825 12.1667 5.20825Z" fill="#DF6235"/>
<path d="M10.5 16.5499C9.44171 16.5499 8.58337 15.6916 8.58337 14.6332C8.58337 13.5749 9.44171 12.7166 10.5 12.7166C11.5584 12.7166 12.4167 13.5749 12.4167 14.6332C12.4167 15.6916 11.5584 16.5499 10.5 16.5499ZM10.5 13.9582C10.1334 13.9582 9.83337 14.2582 9.83337 14.6249C9.83337 14.9916 10.1334 15.2916 10.5 15.2916C10.8667 15.2916 11.1667 14.9916 11.1667 14.6249C11.1667 14.2582 10.8667 13.9582 10.5 13.9582Z" fill="#DF6235"/>
</svg>
