<svg width="24" height="24" viewBox="0 0 24 24" fill="none" xmlns="http://www.w3.org/2000/svg">
    <path d="M5 9.75C6.24386 9.75 7.25 10.7561 7.25 12C7.25 13.2439 6.24386 14.25 5 14.25C3.75614 14.25 2.75 13.2439 2.75 12C2.75 10.7561 3.75614 9.75 5 9.75ZM5 10.25C4.03386 10.25 3.25 11.0339 3.25 12C3.25 12.9661 4.03386 13.75 5 13.75C5.96614 13.75 6.75 12.9661 6.75 12C6.75 11.0339 5.96614 10.25 5 10.25Z" fill="currentColor" stroke="currentColor"/>
    <path d="M19 14.75C17.48 14.75 16.25 13.52 16.25 12C16.25 10.48 17.48 9.25 19 9.25C20.52 9.25 21.75 10.48 21.75 12C21.75 13.52 20.52 14.75 19 14.75ZM19 10.75C18.31 10.75 17.75 11.31 17.75 12C17.75 12.69 18.31 13.25 19 13.25C19.69 13.25 20.25 12.69 20.25 12C20.25 11.31 19.69 10.75 19 10.75Z" fill="currentColor"/>
    <path d="M12 14.75C10.48 14.75 9.25 13.52 9.25 12C9.25 10.48 10.48 9.25 12 9.25C13.52 9.25 14.75 10.48 14.75 12C14.75 13.52 13.52 14.75 12 14.75ZM12 10.75C11.31 10.75 10.75 11.31 10.75 12C10.75 12.69 11.31 13.25 12 13.25C12.69 13.25 13.25 12.69 13.25 12C13.25 11.31 12.69 10.75 12 10.75Z" fill="currentColor"/>
</svg>
