<svg width="24" height="25" viewBox="0 0 24 25" fill="none" xmlns="http://www.w3.org/2000/svg">
<path d="M3.5 13.7686V12.9648C3.5 9.99747 3.5 8.51378 3.96894 7.3288C4.72281 5.42377 6.31714 3.9211 8.33836 3.21057C9.59563 2.76859 11.1698 2.76859 14.3182 2.76859C16.1173 2.76859 17.0168 2.76859 17.7352 3.02114C18.8902 3.42717 19.8012 4.28583 20.232 5.37442C20.5 6.05156 20.5 6.89938 20.5 8.59502V12.7828V13.7686" stroke="#404040" stroke-width="1.5" stroke-linecap="round" stroke-linejoin="round"/>
<path d="M3.5 12.7686C3.5 10.9276 4.99238 9.43522 6.83333 9.43522C7.49912 9.43522 8.28404 9.55188 8.93137 9.37843C9.50652 9.22432 9.95576 8.77507 10.1099 8.19992C10.2833 7.55259 10.1667 6.76767 10.1667 6.10189C10.1667 4.26094 11.6591 2.76855 13.5 2.76855" stroke="#404040" stroke-width="1.5" stroke-linecap="round" stroke-linejoin="round"/>
<path d="M3.5 22.7686V19.7686M3.5 19.7686V17.9686C3.5 17.4029 3.5 17.12 3.67574 16.9443C3.85147 16.7686 4.13431 16.7686 4.7 16.7686H5.5C6.32843 16.7686 7 17.4401 7 18.2686C7 19.097 6.32843 19.7686 5.5 19.7686H3.5ZM20.5 16.7686H19C18.0572 16.7686 17.5858 16.7686 17.2929 17.0614C17 17.3543 17 17.8257 17 18.7686V19.7686M17 22.7686V19.7686M17 19.7686H19.5M14 19.7686C14 21.4254 12.6569 22.7686 11 22.7686C10.6262 22.7686 10.4392 22.7686 10.3 22.6882C9.96665 22.4957 10 22.1061 10 21.7686V17.7686C10 17.431 9.96665 17.0414 10.3 16.8489C10.4392 16.7686 10.6262 16.7686 11 16.7686C12.6569 16.7686 14 18.1117 14 19.7686Z" stroke="#404040" stroke-width="1.5" stroke-linecap="round" stroke-linejoin="round"/>
</svg>
