<svg width="20" height="21" viewBox="0 0 20 21" fill="none" xmlns="http://www.w3.org/2000/svg">
<path d="M7.63314 10.5401C7.60814 10.5401 7.59147 10.5401 7.56647 10.5401C7.52481 10.5318 7.46647 10.5318 7.41647 10.5401C4.9998 10.4651 3.1748 8.5651 3.1748 6.22344C3.1748 3.8401 5.11647 1.89844 7.4998 1.89844C9.88314 1.89844 11.8248 3.8401 11.8248 6.22344C11.8165 8.5651 9.98314 10.4651 7.65814 10.5401C7.6498 10.5401 7.64147 10.5401 7.63314 10.5401ZM7.4998 3.14844C5.80814 3.14844 4.4248 4.53177 4.4248 6.22344C4.4248 7.8901 5.7248 9.23177 7.38314 9.2901C7.43314 9.28177 7.54147 9.28177 7.64981 9.2901C9.28314 9.2151 10.5665 7.87344 10.5748 6.22344C10.5748 4.53177 9.19147 3.14844 7.4998 3.14844Z" fill="white"/>
<path d="M13.783 10.6478C13.758 10.6478 13.733 10.6478 13.708 10.6395C13.3663 10.6728 13.0163 10.4311 12.983 10.0895C12.9496 9.74779 13.158 9.43945 13.4996 9.39779C13.5996 9.38945 13.708 9.38945 13.7996 9.38945C15.0163 9.32279 15.9663 8.32279 15.9663 7.09779C15.9663 5.83112 14.9413 4.80612 13.6746 4.80612C13.333 4.81445 13.0496 4.53112 13.0496 4.18945C13.0496 3.84779 13.333 3.56445 13.6746 3.56445C15.6246 3.56445 17.2163 5.15612 17.2163 7.10612C17.2163 9.02279 15.7163 10.5728 13.808 10.6478C13.7996 10.6478 13.7913 10.6478 13.783 10.6478Z" fill="white"/>
<path d="M7.64134 19.6478C6.00801 19.6478 4.36634 19.2311 3.12467 18.3978C1.96634 17.6311 1.33301 16.5811 1.33301 15.4395C1.33301 14.2978 1.96634 13.2395 3.12467 12.4645C5.62467 10.8061 9.67467 10.8061 12.158 12.4645C13.308 13.2311 13.9497 14.2811 13.9497 15.4228C13.9497 16.5645 13.3163 17.6228 12.158 18.3978C10.908 19.2311 9.27467 19.6478 7.64134 19.6478ZM3.81634 13.5145C3.01634 14.0478 2.58301 14.7311 2.58301 15.4478C2.58301 16.1561 3.02467 16.8395 3.81634 17.3645C5.89134 18.7561 9.39134 18.7561 11.4663 17.3645C12.2663 16.8311 12.6997 16.1478 12.6997 15.4311C12.6997 14.7228 12.258 14.0395 11.4663 13.5145C9.39134 12.1311 5.89134 12.1311 3.81634 13.5145Z" fill="white"/>
<path d="M15.283 18.1481C14.9913 18.1481 14.733 17.9481 14.6746 17.6481C14.608 17.3065 14.8246 16.9815 15.158 16.9065C15.683 16.7981 16.1663 16.5898 16.5413 16.2981C17.0163 15.9398 17.2746 15.4898 17.2746 15.0148C17.2746 14.5398 17.0163 14.0898 16.5496 13.7398C16.183 13.4565 15.7246 13.2565 15.183 13.1315C14.8496 13.0565 14.633 12.7231 14.708 12.3815C14.783 12.0481 15.1163 11.8315 15.458 11.9065C16.1746 12.0648 16.7996 12.3481 17.308 12.7398C18.083 13.3231 18.5246 14.1481 18.5246 15.0148C18.5246 15.8815 18.0746 16.7065 17.2996 17.2981C16.783 17.6981 16.133 17.9898 15.4163 18.1315C15.3663 18.1481 15.3246 18.1481 15.283 18.1481Z" fill="white"/>
</svg>
