<svg width="20" height="20" viewBox="0 0 20 20" fill="none" xmlns="http://www.w3.org/2000/svg">
<path d="M9.58317 18.1253C4.87484 18.1253 1.0415 14.292 1.0415 9.58366C1.0415 4.87533 4.87484 1.04199 9.58317 1.04199C14.2915 1.04199 18.1248 4.87533 18.1248 9.58366C18.1248 14.292 14.2915 18.1253 9.58317 18.1253ZM9.58317 2.29199C5.55817 2.29199 2.2915 5.56699 2.2915 9.58366C2.2915 13.6003 5.55817 16.8753 9.58317 16.8753C13.6082 16.8753 16.8748 13.6003 16.8748 9.58366C16.8748 5.56699 13.6082 2.29199 9.58317 2.29199Z" fill="#DF6235"/>
<path d="M18.3335 18.9585C18.1752 18.9585 18.0169 18.9002 17.8919 18.7752L16.2252 17.1085C15.9835 16.8669 15.9835 16.4669 16.2252 16.2252C16.4669 15.9835 16.8669 15.9835 17.1085 16.2252L18.7752 17.8919C19.0169 18.1335 19.0169 18.5335 18.7752 18.7752C18.6502 18.9002 18.4919 18.9585 18.3335 18.9585Z" fill="#DF6235"/>
</svg>
