<svg width="25" height="24" viewBox="0 0 25 24" fill="none" xmlns="http://www.w3.org/2000/svg">
<path d="M5.51025 5.52832C10.7848 4.99294 16.1389 5.20028 21.521 5.72852H21.522C21.653 5.74152 21.7562 5.86294 21.7427 6.00195L21.7417 6.01172C21.7325 6.13158 21.6287 6.2303 21.5005 6.23047H21.4399C16.4726 5.73396 11.4992 5.52595 6.55908 5.94141L5.56982 6.0332L3.53174 6.23242C3.3818 6.2462 3.26085 6.14246 3.24756 6.00293C3.23369 5.85645 3.33413 5.74185 3.46826 5.72852H3.46924L5.50928 5.52832H5.51025Z" fill="white" stroke="white"/>
<path d="M8.99977 5.72C8.95977 5.72 8.91977 5.72 8.86977 5.71C8.46977 5.64 8.18977 5.25 8.25977 4.85L8.47977 3.54C8.63977 2.58 8.85977 1.25 11.1898 1.25H13.8098C16.1498 1.25 16.3698 2.63 16.5198 3.55L16.7398 4.85C16.8098 5.26 16.5298 5.65 16.1298 5.71C15.7198 5.78 15.3298 5.5 15.2698 5.1L15.0498 3.8C14.9098 2.93 14.8798 2.76 13.8198 2.76H11.1998C10.1398 2.76 10.1198 2.9 9.96977 3.79L9.73977 5.09C9.67977 5.46 9.35977 5.72 8.99977 5.72Z" fill="white"/>
<path d="M15.7099 22.7496H9.2899C5.7999 22.7496 5.6599 20.8196 5.5499 19.2596L4.8999 9.18959C4.8699 8.77959 5.1899 8.41959 5.5999 8.38959C6.0199 8.36959 6.3699 8.67959 6.3999 9.08959L7.0499 19.1596C7.1599 20.6796 7.1999 21.2496 9.2899 21.2496H15.7099C17.8099 21.2496 17.8499 20.6796 17.9499 19.1596L18.5999 9.08959C18.6299 8.67959 18.9899 8.36959 19.3999 8.38959C19.8099 8.41959 20.1299 8.76959 20.0999 9.18959L19.4499 19.2596C19.3399 20.8196 19.1999 22.7496 15.7099 22.7496Z" fill="white"/>
<path d="M14.1601 17.25H10.8301C10.4201 17.25 10.0801 16.91 10.0801 16.5C10.0801 16.09 10.4201 15.75 10.8301 15.75H14.1601C14.5701 15.75 14.9101 16.09 14.9101 16.5C14.9101 16.91 14.5701 17.25 14.1601 17.25Z" fill="white"/>
<path d="M15 13.25H10C9.59 13.25 9.25 12.91 9.25 12.5C9.25 12.09 9.59 11.75 10 11.75H15C15.41 11.75 15.75 12.09 15.75 12.5C15.75 12.91 15.41 13.25 15 13.25Z" fill="white"/>
</svg>
